<?xml version="1.0" encoding="utf-8"?>
<!-- Generator: Adobe Illustrator 27.0.1, SVG Export Plug-In . SVG Version: 6.00 Build 0)  -->
<svg version="1.1" xmlns="http://www.w3.org/2000/svg" xmlns:xlink="http://www.w3.org/1999/xlink" x="0px" y="0px"
	 viewBox="0 0 767.9 528.4" style="enable-background:new 0 0 767.9 528.4;" xml:space="preserve">
<style type="text/css">
	.st0{fill:#FFF5EB;}
	.st1{enable-background:new    ;}
	.st2{opacity:0.8645;enable-background:new    ;}
	.st3{fill:#D1D1D1;}
	.st4{fill:#94B739;stroke:#BFBFBF;stroke-width:4;stroke-miterlimit:10;}
	.st5{fill:#94B739;stroke:#BFBFBF;stroke-width:0.75;stroke-miterlimit:10;}
	.st6{fill:#FCFCFC;stroke:#BFBFBF;stroke-miterlimit:10;}
	.st7{fill:#94B739;}
	.st8{fill:#BFBFBF;}
	.st9{fill:#AC6122;}
	.st10{fill:#DCDCDC;}
	.st11{fill:#FFFFFF;}
	.st12{fill:#13342D;}
	.st13{fill:#606060;}
</style>
<g id="stroke">
	<g>
		<path class="st0" d="M348.7,524.5c-1.2,0-2.4-0.5-3.2-1.4l-61.9-65L6.3,161.5c-1.5-1.6-1.6-4-0.4-5.7L113.8,6.4
			c0.7-1,1.9-1.7,3.1-1.8c0.2,0,0.3,0,0.5,0c1.1,0,2.1,0.4,3,1.1l23.5,20.5c0.1,0.1,0.3,0.3,0.4,0.4l9.1,10.3l94.5,23.1l7-4.3
			c0.2-0.1,0.3-0.2,0.5-0.3l9.6-4.3c0.5-0.2,1.1-0.4,1.7-0.4l14.2-0.5l0.1-0.1c0.1-0.1,0.3-0.2,0.5-0.3l10.6-6.7l4.6-4.7
			c0.5-0.5,1.1-0.9,1.7-1.1l11.4-4c0.5-0.2,0.9-0.2,1.4-0.3c0,0,11.8-0.2,11.9-0.2c0.7,0,1.5,0.2,2.1,0.5L379,62.3l12.1,3.7
			l26.2,3.8l40.8,4.7h14.8l16.9-3.8c0.3-0.1,0.7-0.1,1-0.1c0.4,0,0.8,0,1.1,0.1L497,72l14.8-1.4l10.4-3.8c0.2-0.1,0.3-0.1,0.5-0.1
			l40.6-9.9l15.8-3.7c0.3-0.1,0.7-0.1,1-0.1c0.3,0,0.6,0,0.8,0.1l40.2,7.6c0.1,0,0.1,0,0.2,0l35.2,8.4l31.3,3.8
			c0.4,0.1,0.8,0.2,1.2,0.3l15.9,6.8l51.8,13.2c1.6,0.4,2.8,1.6,3.2,3.1s0,3.2-1.1,4.4L351.9,523.1
			C351.1,524,349.9,524.5,348.7,524.5C348.7,524.5,348.7,524.5,348.7,524.5z"/>
		<path class="st0" d="M117.4,9l23.5,20.5L151,40.8l97.7,23.8l8.6-5.3l9.6-4.3l15.7-0.5l1.3-1.1l11-7l5-5l11.4-4l11.8-0.2l54.1,29.2
			l12.9,3.9l26.5,3.8l41.1,4.7h15.5l17.4-3.9l5.8,1.5l16.2-1.5l11-4l40.6-9.9l15.7-3.6l40.2,7.6l35.4,8.5l31.6,3.9l16.2,6.9
			l52.1,13.3L348.7,520l-61.9-65L9.6,158.5L117.4,9 M117.4,0c-0.3,0-0.7,0-1,0.1c-2.5,0.3-4.8,1.6-6.3,3.7L2.3,153.2
			c-2.5,3.5-2.2,8.3,0.7,11.4l277.2,296.6c0,0,0,0,0.1,0.1l61.9,65c1.7,1.8,4,2.8,6.5,2.8c0,0,0,0,0,0c2.4,0,4.8-1,6.5-2.8
			L762,103.8c2.2-2.3,3.1-5.6,2.2-8.7c-0.9-3.1-3.3-5.5-6.4-6.3l-51.5-13.1l-15.6-6.6c-0.8-0.3-1.6-0.5-2.4-0.6l-31.1-3.8l-34.9-8.4
			c-0.1,0-0.3-0.1-0.4-0.1l-40.2-7.6c-0.6-0.1-1.1-0.2-1.7-0.2c-0.7,0-1.4,0.1-2,0.2l-15.7,3.6c0,0-0.1,0-0.1,0l-40.6,9.9
			c-0.3,0.1-0.6,0.2-1,0.3l-9.9,3.6l-13.4,1.3l-4.3-1.1c-0.7-0.2-1.5-0.3-2.3-0.3c-0.7,0-1.3,0.1-2,0.2l-16.5,3.7h-14l-40.5-4.7
			l-25.7-3.7l-11.3-3.4l-53.3-28.7c-1.3-0.7-2.8-1.1-4.3-1.1c0,0-0.1,0-0.1,0l-11.8,0.2c-1,0-1.9,0.2-2.8,0.5l-11.4,4
			c-1.3,0.5-2.5,1.2-3.4,2.2l-4.3,4.3l-9.8,6.2l-12.9,0.4c-1.2,0-2.3,0.3-3.3,0.8l-9.6,4.3c-0.4,0.2-0.7,0.3-1.1,0.6l-5.4,3.3
			l-91.3-22.3l-8.2-9.2c-0.3-0.3-0.5-0.5-0.8-0.8L123.3,2.2C121.7,0.8,119.6,0,117.4,0L117.4,0z"/>
	</g>
</g>
<g id="decoration" class="st1">
	<g>
		<g class="st2">
			<path class="st3" d="M117.5,9.1l23.5,20.5l-9.1,12.6L106.7,24L117.5,9.1 M117.5,4.1c-0.2,0-0.4,0-0.6,0c-1.4,0.2-2.7,0.9-3.5,2
				l-10.8,14.9c-1.6,2.2-1.1,5.4,1.1,7l25.1,18.2c0.9,0.6,1.9,0.9,2.9,0.9c0.3,0,0.5,0,0.8-0.1c1.3-0.2,2.5-0.9,3.3-2l9.1-12.6
				c1.5-2.1,1.2-5-0.8-6.7L120.8,5.4C119.9,4.6,118.7,4.1,117.5,4.1L117.5,4.1z"/>
		</g>
		<g class="st2">
			<path class="st3" d="M106.7,24.1l25.2,18.2l-9.1,12.6l0,0l-9.1,12.6l-9.2,12.7l-9.1,12.6l-9.2,12.6l-9,12.5l-9.1,12.6L59,143.1
				l16.6,17.7l9.6,10.1l11.6-12.3l10.8-11.5l10.5-11.2l10.6-11.2l10.9-11.5l10.5-11.2l7-7.4l35.3,8.5l34.6,8.3l-20.6,22.1
				l-10.5,11.3l-10.7,11.5l-10.5,11.4L164,178.9l-10.6,11.5l-10.5,11.2L132.2,213l-10.8,11.2c-0.7-0.1-1.5-0.2-2.2-0.2
				c-3.9,0-7.7,1.5-10.7,4.5c-1.5,1.6-2.7,3.4-3.3,5.4l0,0c-1.7,5-0.7,10.6,2.9,14.7c0.2,0.3,0.5,0.6,0.8,0.8
				c2.9,2.8,6.5,4.1,10.2,4.1c1,0,2.1-0.1,3.1-0.3l19.9,18.6l-13,13.8l-28.4-30.2l-26.4-28l-24.8-26.4L9.6,158.5L31,128.7l11.8-16.4
				L52,99.8l9.1-12.6l9.2-12.7l9-12.5l9.2-12.8l9.2-12.6l0,0L106.7,24.1 M85.7,215.7L92,209L85.7,215.7L85.7,215.7 M106.7,19.1
				c-1.6,0-3.1,0.7-4.1,2.1l-8.9,12.3c-0.1,0.1-0.1,0.2-0.2,0.3l-9.2,12.6l-9.2,12.8l-9,12.4L57,84.2l-9.1,12.6l-9.1,12.6L27,125.8
				L5.5,155.5c-1.4,1.9-1.2,4.6,0.4,6.4l40.1,42.6l24.8,26.4l26.4,28l28.4,30.2c0.9,1,2.3,1.6,3.6,1.6c0,0,0,0,0,0
				c1.4,0,2.7-0.6,3.6-1.6l13-13.8c0.9-1,1.4-2.3,1.4-3.6c0-1.3-0.6-2.6-1.6-3.5l-19.9-18.6c-0.9-0.9-2.2-1.3-3.4-1.3
				c-0.3,0-0.7,0-1,0.1c-0.7,0.1-1.3,0.2-2,0.2c-2.5,0-4.9-1-6.8-2.8c-0.1-0.1-0.2-0.2-0.4-0.3c-0.1-0.1-0.1-0.1-0.2-0.2
				c-2.2-2.6-3-6.2-2.1-9.4c0.1-0.2,0.1-0.3,0.2-0.5c0.4-1.2,1.1-2.3,2.1-3.4c1.9-1.9,4.4-3,7.1-3c0.5,0,1,0,1.5,0.1
				c0.2,0,0.5,0.1,0.7,0.1c1.3,0,2.6-0.5,3.6-1.5l10.8-11.2c0,0,0,0,0,0l10.7-11.4l10.5-11.2l10.6-11.5l10.6-11.4l10.6-11.4
				l10.7-11.4l10.5-11.3l20.6-22.1c1.2-1.3,1.6-3.1,1.1-4.8c-0.5-1.7-1.9-3-3.6-3.4l-34.6-8.3l-35.3-8.5c-0.4-0.1-0.8-0.1-1.2-0.1
				c-1.4,0-2.7,0.6-3.6,1.6l-7,7.4l-10.5,11.1l-10.9,11.5l-10.6,11.2l-10.6,11.2l-10.8,11.5l-8,8.5l-5.9-6.2l-13.7-14.6l6.7-9.3
				l9.1-12.6l9-12.5l9.2-12.6l9.1-12.6l9.2-12.7l8.9-12.4c0.1-0.1,0.1-0.1,0.2-0.2l9.1-12.6c0.8-1.1,1.1-2.4,0.9-3.7
				c-0.2-1.3-0.9-2.5-2-3.3l-25.2-18.2C108.7,19.4,107.7,19.1,106.7,19.1L106.7,19.1z"/>
		</g>
		<g class="st2">
			<path class="st3" d="M243,121.7l20.3,21.9l11.5,12.2l10.5,11.3l-22.8,21.1L248.8,201l-0.2,0.1c-0.2,0.2-0.3,0.3-0.5,0.5
				c-3.7,3.8-4.9,9.1-3.7,13.8c0.6,2.6,2.1,5.1,4.3,7.1c2.9,2.8,6.6,4.2,10.3,4.2c2.6,0,5.2-0.7,7.4-2l0,0c1.1-0.7,2.2-1.5,3.2-2.5
				c4.6-4.7,5.3-11.8,2.4-17.3l3.1-2.9l0,0l22.6-21.1l10.7,11.6l10.6,11.5l10.6,11.4l10.5,11.4l10.5,11.4l10.5,11.4l10.5,11.4
				l10.8,11.7c-5,10.4-11.9,18.7-18.8,25.1l0,0c-13.1,12.2-26,17.7-26,17.7l-8.4-9.1l-10.7-11.5l-6.6-7.1c2.2-3.5,2.8-7.7,1.8-11.6
				c-0.7-2.5-2-5-4.1-6.9c-2.5-2.4-5.7-3.7-8.9-4.1c-0.5-0.1-1-0.1-1.6-0.1c-3.8,0-7.7,1.5-10.6,4.4c-0.7,0.7-1.1,1.5-1.7,2.2
				c-3.1,4.8-3.4,11.3-0.3,16.1l1.4,1.5c0,0,0,0,0.1,0.1c0.3,0.4,0.7,0.8,1.1,1.1l7.9,8.6l-22.7,21.1l0,0l22.6-21.2l10.7,11.5l0,0
				l14.5,15.6c-8.6,7.3-15.7,15.7-20.8,23.3l0,0c-4.6,6.6-7.6,12.5-8.9,15.9c-2.7,7.3-6.6,12.8-6.6,12.8L271.7,363l-10.5-11.4
				l-10.5-11.4l-3.6-3.9c-0.3-0.4-0.7-0.8-1.1-1.1l-0.2-0.2c-2.4-2.2-5.3-3.6-8.3-4c-0.6-0.1-1.3-0.1-2-0.1c-3.9,0-7.8,1.6-10.7,4.6
				c-0.6,0.6-1.1,1.3-1.6,1.9l0,0c-4,5.9-3.3,13.9,2,19c0.4,0.4,0.8,0.8,1.2,1.1l-4.4,4.1l-11.6,10.9l-17-18l22.7-23.7l0,0
				l34.5-35.9l0.9,1l-0.9-0.9l28.9-30.1l0,0l-4.4-4.4L236.4,223l-25.2-24.2l-9,9.5l-11.8,12.5l-11.8,12.5L167,245.7l-11.8,12.5l0,0
				l-13,13.7l-19.9-18.6c2.8-0.6,5.5-2,7.6-4.2c2.8-2.9,4.2-6.7,4.1-10.5c0-0.1,0-0.2,0-0.2l11.5-12.4l11.7-12.5l11.7-12.5
				l11.7-12.5l11.6-12.5l11.8-12.6l11.6-12.5l11.6-12.5L243,121.7 M314.5,244.6L314.5,244.6l-7.7-8.2l-4-4.4l4.1,4.4L314.5,244.6
				 M329.9,261.2L329.9,261.2l8.7,9.4l3,3.1l-3-3.2L329.9,261.2l-1.9-2l-10.5-11.4l-0.1-0.2l0.2,0.2l10.5,11.4L329.9,261.2
				 M285.1,331.8L285.1,331.8L285.1,331.8L285.1,331.8 M243,116.7c-1.4,0-2.7,0.6-3.6,1.6l-15.7,16.7L212,147.4l-11.6,12.5
				l-11.8,12.6L177,184.9l-11.7,12.5L153.6,210L142,222.5l-11.5,12.4c-0.9,0.9-1.3,2.1-1.3,3.4v0.2c0,0,0,0.1,0,0.1
				c0.1,2.6-0.9,5.1-2.7,7c-1.4,1.4-3.1,2.4-5.1,2.8c-1.8,0.4-3.3,1.8-3.8,3.6c-0.5,1.8,0.1,3.7,1.4,5l19.9,18.6
				c1,0.9,2.2,1.3,3.4,1.3c1.3,0,2.7-0.5,3.6-1.6l12.5-13.2c0.2-0.2,0.4-0.3,0.5-0.5l11.8-12.5l11.7-12.4l11.8-12.5l11.8-12.5
				l5.5-5.8l21.5,20.7l39,37.4l0.9,0.9l-24.8,25.8c-0.3,0.2-0.6,0.4-0.8,0.7l-34.5,35.9c-0.2,0.2-0.3,0.4-0.5,0.6l-22.2,23.1
				c-1.8,1.9-1.9,5,0,6.9l17,18c1,1,2.3,1.6,3.6,1.6c1.2,0,2.4-0.4,3.4-1.3l11.6-10.9l4.3-4c1.1-1,1.7-2.5,1.6-4.1
				c-0.1-1.5-0.9-2.9-2.2-3.8c-0.1-0.1-0.3-0.3-0.5-0.4c0,0-0.1-0.1-0.1-0.1c-3.4-3.3-4-8.6-1.3-12.5c0.1-0.2,0.2-0.4,0.3-0.6
				c0.2-0.3,0.4-0.5,0.6-0.7c0,0,0,0,0,0c1.9-2,4.5-3.1,7.2-3.1c0.4,0,0.9,0,1.3,0.1c1.9,0.3,3.9,1.2,5.5,2.6l0.1,0.1
				c0.3,0.3,0.6,0.6,0.7,0.7c0.1,0.1,0.1,0.2,0.2,0.3l3.6,3.9l10.6,11.4l10.5,11.4l14.3,15.4c0.9,1,2.3,1.6,3.7,1.6
				c0.1,0,0.2,0,0.3,0c1.5-0.1,2.9-0.8,3.7-2.1c0.2-0.2,4.4-6.1,7.3-14c1.1-2.9,3.7-8.1,8-14.3c0.1-0.2,0.3-0.3,0.4-0.5
				c5.6-8.2,12.6-16.1,19.9-22.3c1-0.9,1.7-2.2,1.8-3.5c0.1-1.4-0.4-2.7-1.3-3.7l-14-15.1c-0.1-0.2-0.3-0.4-0.5-0.6l-10.7-11.4
				l-7.9-8.6c0-0.1-0.1-0.1-0.1-0.1c-0.3-0.3-0.6-0.6-0.7-0.7c-0.1-0.1-0.2-0.3-0.4-0.4l0,0l-1-1c-1.7-3-1.5-7.2,0.5-10.3
				c0.1-0.2,0.2-0.3,0.3-0.5c0.3-0.4,0.5-0.8,0.7-1c0,0,0,0,0,0c1.8-1.9,4.3-2.9,7-2.9c0.3,0,0.7,0,1,0.1c2.2,0.2,4.3,1.2,6,2.7
				c1.5,1.4,2.3,3.2,2.6,4.5c0.7,2.7,0.3,5.4-1.2,7.7c-1.2,1.9-1,4.4,0.6,6.1l6.6,7.1l10.7,11.5l8.4,9.1c1,1,2.3,1.6,3.7,1.6
				c0.7,0,1.3-0.1,2-0.4c0.6-0.2,13.9-6.1,27.4-18.7c0.2-0.2,0.3-0.4,0.5-0.5c8.2-7.7,14.7-16.5,19.4-26.1c0.9-1.8,0.6-4.1-0.8-5.6
				l-10.8-11.7l-10.6-11.4l-10.5-11.4l-10.5-11.4l-10.5-11.4l-10.6-11.4l-10.6-11.5l-10.7-11.6c-0.9-1-2.2-1.6-3.5-1.6
				c-0.1,0-0.1,0-0.2,0c-1.3,0-2.5,0.5-3.4,1.3l-22.5,21c0,0-0.1,0.1-0.1,0.1l-3.1,2.9c-1.7,1.6-2.1,4-1,6c2,3.7,1.4,8.4-1.5,11.5
				c-0.7,0.7-1.4,1.3-2.2,1.7c-0.1,0.1-0.2,0.2-0.4,0.2c-1.4,0.7-2.9,1.1-4.5,1.1c-2.6,0-5-1-6.8-2.8c0,0-0.1,0-0.1-0.1
				c-1.4-1.3-2.4-3-2.8-4.6c-0.8-3.3,0.1-6.7,2.5-9.2l0.1-0.1c0.2-0.1,0.3-0.2,0.4-0.4l13.7-12.8l22.8-21.1c2-1.9,2.1-5,0.3-7.1
				l-10.5-11.3l-11.5-12.3l-20.2-21.9C245.8,117.3,244.5,116.7,243,116.7C243.1,116.7,243.1,116.7,243,116.7L243,116.7z"/>
		</g>
		<g class="st2">
			<path class="st3" d="M226.6,357.6c2.7,2.1,5.9,3.1,9.1,3.1c2.3,0,4.7-0.6,6.8-1.7l15.4,16.6l18.4,19.9c0,0-4.9,8.7-8.8,15.1l0,0
				c-1.8,2.9-3.4,5.3-4.3,6.1c-2.6,2.4-4.1,7.3-4.1,7.3l-24.8-26.3l-23.8-25.2l11.6-10.9l0,0L226.6,357.6 M226.6,352.6
				c-1.2,0-2.5,0.5-3.4,1.3l-3.8,3.5c-0.2,0.1-0.4,0.3-0.6,0.5l-11.6,10.9c-1,0.9-1.5,2.2-1.6,3.5c0,1.3,0.4,2.6,1.4,3.6l23.8,25.2
				l24.8,26.3c1,1,2.3,1.6,3.6,1.6c0.4,0,0.7,0,1.1-0.1c1.7-0.4,3.1-1.7,3.7-3.4c0.5-1.5,1.7-4.1,2.8-5.2c1.1-1,2.2-2.6,4.7-6.5
				c0.1-0.2,0.3-0.4,0.4-0.6c3.9-6.4,8.7-14.9,8.9-15.2c1.1-1.9,0.8-4.2-0.7-5.8l-18.4-19.9l-15.5-16.6c-1-1-2.3-1.6-3.7-1.6
				c-0.8,0-1.6,0.2-2.3,0.6c-1.4,0.7-2.9,1.1-4.5,1.1c-2.2,0-4.3-0.7-6.1-2.1C228.8,353,227.7,352.6,226.6,352.6L226.6,352.6z"/>
		</g>
		<g class="st2">
			<path class="st3" d="M323.4,38.3l5.2,2.8l14.5,7.7l16.7,8.9l17.5,9.3l12.3,3.5l-15.1,14l-18.1-2.8l-17.7-2.7l-15.5-2.4L308,74.3
				l-0.2,0.1l-14.7,5.2L272,87l-27,9.6l-37.8-9.3l-15.4-3.8l7.5-30.8l32.9,8.1l16.5,4.1l0.2-0.1l8.7-5.3l5.6-2.1h0.1l3.7-2l15.7-0.5
				l1.1-1l0.2-0.1l11.2-6.5l4.1-4.4l7-2.8l5.8-1.4h0.5L323.4,38.3 M323.4,33.3C323.3,33.3,323.3,33.3,323.4,33.3l-11,0.2H312
				c-0.4,0-0.8,0-1.2,0.1L305,35c-0.2,0.1-0.5,0.1-0.7,0.2l-7,2.8c-0.7,0.3-1.3,0.7-1.8,1.3l-3.5,3.9l-10.4,6l0,0
				c-0.3,0.1-0.6,0.3-0.8,0.5l-14,0.5c-0.8,0-1.5,0.2-2.2,0.6l-3.3,1.7l-5.6,2.1c-0.3,0.1-0.6,0.2-0.8,0.4l-7.1,4.3l-14.5-3.6
				l-32.9-8.1c-0.4-0.1-0.8-0.1-1.2-0.1c-0.9,0-1.8,0.2-2.6,0.7c-1.1,0.7-2,1.8-2.3,3.1L187,82.2c-0.7,2.7,1,5.4,3.7,6l15.4,3.8
				l37.8,9.3c0.4,0.1,0.8,0.1,1.2,0.1c0.6,0,1.1-0.1,1.7-0.3l27-9.6l21.2-7.4l13.7-4.9l13.9,2.2L338,84l17.7,2.7l18.1,2.8
				c0.3,0,0.5,0.1,0.8,0.1c1.2,0,2.5-0.5,3.4-1.3l15.1-14c1.3-1.2,1.9-3.1,1.5-4.8c-0.4-1.8-1.8-3.2-3.5-3.6l-11.8-3.4l-17-9.1
				l-16.7-8.9l-14.5-7.7l-5.2-2.8C325,33.5,324.2,33.3,323.4,33.3L323.4,33.3z"/>
		</g>
		<g class="st2">
			<path class="st3" d="M580.4,60l38.4,5.7L605.4,78l-1.4,0.6c-4,0.3-7.7,1-11.2,1.8c-6.7,1.5-12.7,3.8-17.9,6.4L554.7,65l5.7-1.5
				l7.9-0.6l6.9-1.7L580.4,60 M580.4,55c-0.4,0-0.8,0-1.2,0.1l-5.2,1.3l-6.5,1.6l-7.5,0.6c-0.3,0-0.6,0.1-0.8,0.1l-5.7,1.5
				c-1.7,0.4-3.1,1.7-3.6,3.4c-0.5,1.7-0.1,3.5,1.1,4.8l20.3,21.8c1,1,2.3,1.6,3.7,1.6c0.8,0,1.5-0.2,2.2-0.5c5.4-2.7,11-4.7,16.8-6
				c2.8-0.6,6.5-1.3,10.5-1.6c0.6,0,1.1-0.2,1.6-0.4l1.4-0.6c0.5-0.2,1-0.5,1.4-0.9l13.4-12.4c1.4-1.3,1.9-3.3,1.4-5.1
				c-0.6-1.8-2.1-3.2-4-3.5L581.1,55C580.9,55,580.6,55,580.4,55L580.4,55z"/>
		</g>
		<g class="st2">
			<path class="st3" d="M649.4,73.6l5,1.1l10.3,2.2l5.8,0.7l15.1,1.5h0.5l1.5,0.1l15,7.3l0.2,0.2l0.2,0.2l30.7,6.9l-0.6,0.7l0.7-0.7
				l20.3,4.6l-35.8,37.1l-32.9,34.1l0,0l-20.3,21l-35.9,37.4l-27.5,28.6l0,0l-28.5,29.6l-28.8,29.9l-27.4,28.4L491,370.9l-30.3,31.4
				l0.1,0.1L432,432.3l0,0l-27.4,28.4l-28.4,29.5L358,508.9l0,0l-9.7,10l-17.6-18.7l0,0l-22.4-23.9l-19.6-20.9
				c3.3-5,6.8-9.2,10-12.8l21,23.2l11.7-10.8l13.5,14.4c-0.5,4.4,1,9.1,4.4,12.5c0.2,0.2,0.4,0.4,0.5,0.5c2.8,2.4,6.2,3.6,9.7,3.6
				c3.3,0,6.6-1.1,9.3-3.3c0.5-0.4,1-0.8,1.5-1.3c4.1-4.2,5.1-10.2,3.3-15.4c-0.8-2.1-2-4.1-3.7-5.7c-2.9-2.8-6.6-4.2-10.3-4.2
				c-0.3,0-0.6,0-0.9,0l-0.8-0.5l-10.5-11.3l-10.7-11.5L326,421.8c8.6-9.6,13-18.1,17.3-27.1l9.9,10.7l0,0l22.9-20.9l10.5,11.3
				l10.6,11.2l3.1,3.3c-1.4,5,0,10.7,4.1,14.5c1.8,1.7,3.7,2.8,6,3.5l0,0c1.4,0.4,2.9,0.6,4.3,0.6c3.6,0,7.2-1.3,10.1-3.9l0,0
				c0.2-0.2,0.4-0.4,0.6-0.6c3.6-3.7,4.8-8.8,3.8-13.5l21.3-19.8L429.1,411c-0.6-2.8-2-5.4-4.2-7.5c-2.7-2.5-6-3.9-9.4-4.1l-2.3-2.5
				l-10.7-11.4L392,374l-13.8-14.8c9.8-5.7,18.2-12.5,24.9-19.1c12.7-12.6,19.7-24.1,19.7-24.1l13.1,14l0,0l10.6,11.3l10.2,11
				c-0.1,0.3-0.1,0.5-0.2,0.8c-0.8,4.7,0.6,9.6,4.3,13.1c2.1,2,4.6,3.3,7.3,3.8l-20.2,18.6l-12-12.9l-1.7-1.8l-2.1-2.2l3.9,4.2
				l13,14l-1.2-1.3l20.2-18.5c1,0.2,2,0.3,3,0.3c3.9,0,7.9-1.5,10.8-4.6c0.6-0.6,1.2-1.4,1.7-2.1c3.5-5.3,3.2-12.4-0.8-17.4l0,0
				c-0.4-0.5-0.8-0.9-1.2-1.4c-2.8-2.8-6.5-4.1-10.1-4.1l-6.8-7.3l-10.7-11.5l-10.5-11.4L432.6,299c4.2-14.1,17.4-20.7,17.4-20.7
				c1.5-0.5,2.8-1.2,4.1-1.8c16.5-8,26.7-17,26.7-17l11.2,12l10.5,11.3l10.2,11.1c-0.1,0.2-0.1,0.5-0.2,0.7
				c-0.9,4.7,0.6,9.9,4.4,13.5c1.6,1.5,3.4,2.6,5.4,3.3l0.1-0.1c1.6,0.5,3.2,0.8,4.9,0.8c3.4,0,6.8-1.2,9.6-3.6
				c0.4-0.3,0.7-0.6,1.1-1c3.4-3.4,4.7-8.1,4-12.5c-0.5-3.1-2-6-4.4-8.4c-2.8-2.6-6.2-4-9.7-4.1c-0.1,0,0,0-0.1,0l-10.5-11.2
				l-10.5-11.4l-12.2-13.2c10.1-10.7,16.2-22.1,18.3-25.7l10.5,11.4l0,0l-10.6-11.4c2.1-3.6,6.6-13.8,6.6-13.8
				c4.4-8,10.5-13.7,10.5-13.7l16.4,17.7l0,0l10.5,11.5l-22.8,21l0,0l22.9-21l10.5,11.4l-22.8,21.1l6,6.4l8.4,9.2l4.2,4.4l0,0
				l-4.2-4.4l-8.4-9.2l-6-6.4l22.8-21.1l1.7,1.8c-1,4.8,0.4,10.1,4.2,13.8c1.5,1.5,3.3,2.6,5.2,3.3l0.1-0.1c1.6,0.6,3.3,0.9,5,0.9
				c3.9,0,7.8-1.5,10.7-4.5l0,0c4.2-4.4,5.1-10.9,2.8-16.1c-0.8-1.8-1.8-3.5-3.3-4.9c-2.8-2.8-6.6-4.1-10.2-4.1l-2.4-2.7l0,0
				L570.6,210L560,198.5l-14.1-15.2c10.4-4.7,19.1-11.8,25.3-18.6c4.1-4.4,7-8.8,8.7-12c4.2-8.1,10.9-12.5,10.9-12.5l14.7,15.9
				l10.6,11.4l10.5,11.3l0,0l2.6,2.8c0.6,2.8,2,5.4,4.2,7.6c1.9,1.9,4.3,3.1,6.7,3.7l-23.2,21.4l-13.1-14.2l13.1,14.2l23.2-21.4
				c1.2,0.3,2.4,0.4,3.6,0.4c3.9,0,7.7-1.5,10.7-4.6c1.6-1.6,2.8-3.6,3.4-5.7c1.6-4.9,0.6-10.4-3-14.4l0,0c-0.2-0.3-0.5-0.5-0.7-0.8
				c-2.9-2.8-6.6-4.2-10.3-4.2c-1.7,0-3.4,0.3-5,0.9l-3.1-3.3l0,0l-10.5-11.4l0,0l-20.9-22.5c0,0,1.5-9.8,11.1-9.9l27.3,5.3l0.1,0.1
				l53.1,10.4c0.7,0.2,1.2,0.2,1.8,0.4c0.3,0.1,0.5,0.1,0.8,0.1c0.5,0.1,1,0.1,1.5,0.1c3.9,0,7.7-1.5,10.6-4.5
				c0.4-0.4,0.7-0.7,0.9-1c3.3-4.1,4.2-9.7,2.5-14.4l0,0c-0.8-2.1-2-4-3.7-5.7c-2.8-2.7-6.3-4.1-10-4.1c-0.1,0-0.2,0-0.3,0
				c-3.9,0-7.7,1.5-10.6,4.5c-1.1,1.1-2,2.4-2.6,3.7l-6.8-1.3l-15.3-3l-0.2-0.1l-15.9-3.1l-20.3-4c-4.7-3.9-0.8-7.5-0.8-7.5
				L649.4,73.6 M468.6,291.9l-2.4-2.6l0.1,0.1L468.6,291.9 M476.7,300.7l-7.6-8.2l0,0L476.7,300.7 M490.3,315.4L490.3,315.4l-3-3.2
				l-7.6-8.2l7.6,8.2L490.3,315.4L490.3,315.4 M363.9,416.8l6.2,6.6l4.5,4.8l6.1,6.4l1.1,1.2l-1-1.1l-6.1-6.5L363.9,416.8l-6.3-6.7
				l1.9,2L363.9,416.8 M649.4,68.6c-1.2,0-2.5,0.5-3.4,1.3l-21.8,20c-0.5,0.5-3.3,3.2-3.2,7.3c0,2,0.8,5,4.1,7.7
				c0.6,0.5,1.4,0.9,2.2,1l20.3,4l15.4,3c0.2,0.1,0.4,0.1,0.7,0.2l15.3,3l6.8,1.3c0.3,0.1,0.6,0.1,0.9,0.1c1.9,0,3.8-1.1,4.6-3
				c0.3-0.7,0.9-1.5,1.6-2.3c1.9-1.9,4.4-3,7-3l0.2,0c2.5,0.1,4.8,1,6.6,2.7c1.1,1.1,1.9,2.4,2.5,3.8c0,0.1,0.1,0.2,0.1,0.3
				c1,3.1,0.3,6.6-1.8,9.1c0,0.1-0.1,0.1-0.1,0.2c0,0-0.3,0.3-0.5,0.5c0,0,0,0,0,0c-1.9,1.9-4.4,3-7.1,3c-0.3,0-0.7,0-1-0.1
				c-0.2,0-0.3,0-0.5,0c-0.4-0.1-0.7-0.1-1-0.2c-0.2,0-0.4-0.1-0.7-0.1c0,0-0.1,0-0.1,0l-52.3-10.2c-0.3-0.1-0.6-0.2-0.9-0.3
				l-27.3-5.3c-0.3-0.1-0.6-0.1-1-0.1c0,0,0,0,0,0c-11,0.1-15.3,9.3-16,14.1c-0.2,1.5,0.3,3,1.3,4.1l20.9,22.5l10.5,11.4
				c0.2,0.2,0.3,0.3,0.5,0.5l2.6,2.8c1,1,2.3,1.6,3.7,1.6c0.6,0,1.1-0.1,1.7-0.3c1.1-0.4,2.2-0.6,3.3-0.6c2.5,0,4.8,0.9,6.6,2.6
				c0.1,0.1,0.1,0.2,0.2,0.2c0.1,0.2,0.3,0.4,0.4,0.5c2.3,2.5,3,6.1,1.9,9.5c0,0.1,0,0.1-0.1,0.2c-0.4,1.4-1.1,2.6-2.1,3.6
				c0,0,0,0-0.1,0.1c-1.9,1.9-4.4,3-7.1,3c-0.8,0-1.6-0.1-2.4-0.3c-1.7-0.4-3.2-1.3-4.4-2.4c0,0,0,0-0.1-0.1c-1.4-1.4-2.4-3.1-2.8-5
				c-0.2-0.9-0.6-1.7-1.3-2.4l-2.6-2.8c-0.2-0.2-0.3-0.3-0.5-0.5l-10-10.8l-10.6-11.4l-14.7-15.9c-1-1.1-2.3-1.6-3.7-1.6
				c-0.9,0-1.9,0.3-2.7,0.8c-0.3,0.2-7.8,5.2-12.5,14.3c-0.8,1.6-3.3,6-7.9,10.9c-6.8,7.4-15.2,13.5-23.7,17.4
				c-1.5,0.7-2.5,2-2.8,3.6c-0.3,1.6,0.1,3.2,1.2,4.4l14.1,15.2l10.6,11.5l10.4,11.2c0,0,0.1,0.1,0.1,0.1l2.4,2.7
				c0.9,1,2.3,1.6,3.7,1.6c2.5,0,5,1,6.8,2.7c0,0,0,0,0,0c0.8,0.8,1.5,1.9,2.1,3.3c0,0,0,0,0,0.1c1.5,3.3,0.9,7.4-1.5,10.2
				c-0.1,0.1-0.2,0.2-0.4,0.3c-1.9,1.9-4.4,3-7.1,3c-1.2,0-2.3-0.2-3.4-0.6c-0.2-0.1-0.4-0.1-0.6-0.2c-1.1-0.5-2-1.1-2.8-1.9
				c0,0,0,0-0.1-0.1c-2.4-2.3-3.5-5.8-2.8-9.1c0.3-1.6-0.1-3.3-1.3-4.5l-1.7-1.7l-10.5-11.4c-0.2-0.2-0.3-0.3-0.5-0.5l-9.5-10.4
				c-0.1-0.2-0.3-0.4-0.5-0.6l-16.4-17.7c-1-1.1-2.3-1.6-3.7-1.6c-1.2,0-2.4,0.4-3.4,1.3c-0.3,0.3-6.8,6.3-11.5,15
				c-0.1,0.1-0.1,0.2-0.2,0.4c-1.2,2.7-4.7,10.5-6.4,13.2c0,0,0,0,0,0c-0.2,0.4-0.5,0.9-0.9,1.5c-2.7,4.6-8.2,14.2-16.8,23.3
				c-1.8,1.9-1.8,4.9,0,6.8l12.2,13.2l10.5,11.4l10.5,11.2c0.9,1,2.2,1.6,3.6,1.6c2.4,0.1,4.6,1.1,6.4,2.7c1.6,1.6,2.6,3.5,2.9,5.5
				c0.5,3.1-0.5,6.1-2.6,8.3c-0.3,0.3-0.5,0.5-0.6,0.6c-0.1,0-0.1,0.1-0.2,0.1c-1.7,1.5-4,2.3-6.3,2.3c-1.1,0-2.2-0.2-3.2-0.5
				c-0.2-0.1-0.4-0.1-0.6-0.2c-1.1-0.5-2.1-1.1-3-2c-2.4-2.3-3.5-5.6-2.9-8.7c0.1-0.2,0.1-0.4,0.1-0.6c0.4-1.6,0-3.4-1.2-4.6
				l-10.2-11.1L495.8,268l-11.2-12c-1-1.1-2.3-1.6-3.7-1.6c-1.2,0-2.4,0.4-3.3,1.2c-0.1,0.1-10,8.7-25.6,16.3l-0.7,0.3
				c-1,0.5-2,1-3,1.3c-0.2,0.1-0.3,0.1-0.5,0.2c-0.6,0.3-15.2,7.8-20,23.7c-0.5,1.7-0.1,3.5,1.1,4.8l10.7,11.5l10.5,11.4l10.7,11.5
				l6.8,7.3c0.9,1,2.3,1.6,3.7,1.6c2.4,0,4.7,0.9,6.5,2.6c0.2,0.2,0.4,0.4,0.6,0.6c0.2,0.2,0.3,0.3,0.5,0.5c0.1,0.1,0.2,0.2,0.3,0.3
				c2.3,3.2,2.4,7.7,0.2,11.1c0,0.1-0.1,0.1-0.1,0.2c-0.2,0.4-0.6,0.8-0.9,1.2c0,0,0,0-0.1,0.1c-1.9,1.9-4.5,3-7.2,3
				c-0.5,0-1,0-1.4-0.1c-0.2-0.1-0.4-0.1-0.6-0.1c-1.8-0.4-3.4-1.2-4.8-2.5c-2.3-2.2-3.4-5.4-2.8-8.5c0.1-0.3,0.1-0.5,0.1-0.6l0,0
				c0.4-1.6-0.1-3.3-1.2-4.5l-10.2-11L440,327c-0.1-0.2-0.3-0.4-0.5-0.6l-13.1-14c-1-1-2.3-1.6-3.7-1.6c-0.2,0-0.3,0-0.5,0
				c-1.6,0.2-2.9,1-3.8,2.4c-0.1,0.1-6.9,11.2-19,23.2c-7.5,7.3-15.5,13.5-23.9,18.3c-1.3,0.8-2.2,2.1-2.4,3.6
				c-0.2,1.5,0.2,3,1.3,4.1l13.8,14.8l10.5,11.4c0,0,0,0,0,0l10.7,11.4l2.3,2.5c0.9,1,2.1,1.5,3.4,1.6c2.4,0.2,4.5,1.1,6.3,2.8
				c1.6,1.5,2.4,3.3,2.7,4.7c0,0.1,0,0.2,0.1,0.3c0.7,3.3-0.2,6.6-2.5,8.9c0,0,0,0,0,0c-0.1,0.1-0.3,0.2-0.4,0.3
				c-1.8,1.7-4.2,2.6-6.7,2.6c-0.8,0-1.7-0.1-2.5-0.3c-0.1,0-0.2-0.1-0.3-0.1c-1.5-0.5-2.8-1.2-4-2.4c-2.6-2.5-3.6-6.1-2.7-9.6
				c0.5-1.7,0-3.5-1.2-4.7l-3.1-3.3l-10.7-11.3L379.8,381c-1-1.1-2.3-1.6-3.7-1.6c-1.2,0-2.4,0.4-3.4,1.3l-19.2,17.6l-6.5-7
				c-1-1-2.3-1.6-3.7-1.6c-0.3,0-0.5,0-0.8,0.1c-1.6,0.3-3,1.3-3.8,2.8c-4.2,8.9-8.4,17-16.5,25.9c-1.7,1.9-1.7,4.9,0.1,6.8
				l10.6,11.4l10.7,11.5l10.5,11.3c0.2,0.3,0.5,0.5,0.8,0.7l0.8,0.5c0.8,0.6,1.8,0.9,2.9,0.9c0.1,0,0.2,0,0.3,0c0.2,0,0.4,0,0.6,0
				c2.5,0,5,1,6.9,2.8c1,1,1.9,2.3,2.4,3.7c1.2,3.5,0.4,7.5-2.2,10.1c-0.3,0.3-0.6,0.6-0.8,0.7c-0.1,0.1-0.2,0.1-0.2,0.2
				c-1.7,1.4-3.9,2.1-6.1,2.1c-2.3,0-4.5-0.8-6.3-2.3l-0.4-0.4c0,0,0,0,0,0c-2.2-2.2-3.3-5.3-3-8.3c0.2-1.5-0.3-2.9-1.3-4L335,451.7
				c-1-1.1-2.3-1.6-3.7-1.6c-1.2,0-2.4,0.4-3.4,1.3l-8,7.4l-17.6-19.5c-0.9-1-2.3-1.6-3.7-1.6c0,0,0,0,0,0c-1.4,0-2.7,0.6-3.7,1.6
				c-4,4.3-7.5,8.8-10.5,13.4c-1.3,1.9-1.1,4.5,0.5,6.2l19.6,20.9l22.4,23.9c0.2,0.2,0.4,0.4,0.6,0.5l17.1,18.2
				c0.9,1,2.2,1.6,3.6,1.6c0,0,0,0,0,0c1.4,0,2.6-0.5,3.6-1.5l9.7-10c0.2-0.2,0.3-0.4,0.5-0.6l17.6-18.3l28.4-29.5l26.9-27.9
				c0.2-0.1,0.4-0.3,0.5-0.5l28.8-29.9c0.2-0.3,0.5-0.5,0.6-0.8l29.6-30.7l25.9-26.8l27.4-28.4l28.8-29.9l28.5-29.6
				c0,0,0.1-0.1,0.1-0.1l27.4-28.5l35.9-37.4l19.8-20.4c0.2-0.1,0.4-0.3,0.5-0.5l32.9-34.1l35.8-37.1c1.3-1.3,1.7-3.2,1.2-4.9
				c-0.5-1.7-1.9-3-3.7-3.4l-20.3-4.6c-0.3-0.1-0.6-0.1-1-0.1l-28.7-6.4c-0.2-0.1-0.3-0.2-0.5-0.3l-15-7.3c-0.6-0.3-1.3-0.5-1.9-0.5
				l-1.5-0.1c-0.1,0-0.2,0-0.3,0h-0.2l-14.8-1.4l-5.5-0.7l-10.1-2.2l-5.1-1.1C650.1,68.6,649.7,68.6,649.4,68.6L649.4,68.6z"/>
		</g>
		<g class="st2">
			<path class="st3" d="M554.7,65.1l20.3,21.7c-5.1,2.5-9.6,5.4-13.2,8.3c-5.3,4-9.2,7.7-11.8,10.2c-4.1,3.8-7.9,8.2-10.6,11.2
				l0.1,0.1c-2.1,2.4-3.4,4.1-3.4,4.1c-2.3,2.2-5.1,4.5-7.9,6.5l0,0c-3.3,2.2-6.4,3.9-8.5,4.6c-3.9,1.2-14.1,7.9-14.1,7.9
				l-11.3-12.2l0,0l-13.4-14.6l-10.6-11.5l-6.6-7.1l-9.3-1.3l-2.4-0.3c-1.9-0.8-3.9-1.3-6-1.3c-3.9,0-7.8,1.5-10.7,4.5
				c-0.4,0.4-0.8,0.8-1.1,1.3l-0.2,0.1c-4.3,5.9-3.8,14.2,1.6,19.5c2.9,2.8,6.7,4.1,10.4,4.1c3.1,0,6.1-0.9,8.6-2.8l0.1-0.1
				c0.7-0.5,1.4-1.1,2-1.7c0.2-0.2,0.5-0.5,0.7-0.8l0.4-0.4l10.5,11.5l10.5,11.5l12,13.1c-4.7,4-13.9,14.6-19.9,24.4l0,0
				c-2.3,3.7-4.1,7.2-5.2,10.1c-3.8,10.9-10.5,18.4-10.5,18.4L438,185.7l0,0l-10.6-11.5l-10.6-11.5l0.1-0.1
				c0.7-4.6-0.8-9.3-4.4-12.8c-1.6-1.6-3.5-2.7-5.6-3.4l20-18.5l0,0l-20,18.6c-1.5-0.5-3.1-0.8-4.7-0.8c-3.6,0-7.3,1.3-10.1,4
				c0,0-6.1,5.2-4.1,15.1c0.7,2.4,2,4.7,3.9,6.5c2.9,2.8,6.6,4.1,10.3,4.1c0.3,0,0.6,0,0.9,0l10.6,11.5l10.6,11.5l17,18.3
				c-5.7,4.7-12.2,4.7-27.4,16.2l0,0c-15.1,11.5-22,22-22,22l-13.2-14.2l0,0l-10.5-11.4l-10.6-11.4l-10.6-11.5l-14.1-15.3
				l-21.2-22.8l11.5-10.6l11.4-10.5l11.4-10.6l11.5-10.5l11.5-10.6l11.3-10.5l13.8-12.7l13.6-12.6l4.8-4.4l32.8,4.9l11.2,0.5h0.1
				l0-0.1l16.8,0.3l16.5-2.8l4.7,0.5h0.4h0.1h3.8l4.8-0.5l9.4-0.7l8.3-3l3.7-1.4l2.6-1.4l10.1-2.4l0.1,0.1L554.7,65.1 M513.6,111.6
				l-1-1.1l0,0l0,0L513.6,111.6 M355.5,170l29.7-27.5l4.5-4.1l11.5-10.6l13.8-12.7l0,0l0,0l-13.8,12.7l-11.5,10.6l-4.5,4.1l-6.8,6.3
				l-11.5,10.6L355.5,170 M434.8,136.6l0.2-0.2L434.8,136.6 M461.5,165.5l-0.8-0.8l0,0L461.5,165.5 M380.3,196.6l-12.3-13.2l1.8,2
				L380.3,196.6 M413.8,232.8l-12.4-13.4l0,0L413.8,232.8 M554.7,60.1c-0.4,0-0.8,0-1.2,0.1l-16.1,3.9c-0.3,0-0.6,0.1-0.8,0.1
				l-10.1,2.4c-0.4,0.1-0.8,0.2-1.2,0.4l-2.3,1.2l-3.4,1.3l-7.6,2.7l-8.7,0.6c0,0-0.1,0-0.1,0l-4.6,0.4h-3.6h-0.1h-0.1l-4.5-0.4
				c-0.2,0-0.3,0-0.5,0c-0.3,0-0.5,0-0.8,0.1l-16.1,2.7l-16.4-0.3c0,0-0.1,0-0.1,0c-0.2,0-0.5,0-0.7,0l-10.2-0.4L413,70.2
				c-0.2,0-0.5-0.1-0.7-0.1c-1.2,0-2.5,0.5-3.4,1.3l-4.8,4.4l-13.6,12.6l-13.7,12.7l-11.3,10.6l-11.5,10.6l-11.5,10.5L331,143.6
				L319.7,154l-11.5,10.6c-1,0.9-1.5,2.2-1.6,3.5c0,1.3,0.4,2.6,1.3,3.6l21.2,22.8l14.1,15.3l10.6,11.5l10.6,11.4l10.4,11.4
				c0.2,0.2,0.3,0.4,0.5,0.5l12.7,13.7c1,1,2.3,1.6,3.7,1.6c0.1,0,0.3,0,0.4,0c1.5-0.1,2.9-0.9,3.8-2.2c0.1-0.1,6.8-10.1,20.9-20.8
				c8.6-6.5,14.2-9.1,18.6-11.2c3.3-1.5,6.1-2.8,8.9-5.1c1.1-0.9,1.7-2.2,1.8-3.5c0.1-1.4-0.4-2.7-1.3-3.7l-17-18.3l-10.6-11.5
				L406.7,172c-0.9-1-2.3-1.6-3.7-1.6c-0.1,0-0.2,0-0.3,0c-0.2,0-0.4,0-0.6,0c-2.6,0-5.1-1-6.9-2.7c-1.1-1.1-2-2.5-2.5-4.1
				c-1.3-6.7,2.5-10.1,2.5-10.1c0.1-0.1,0.1-0.1,0.2-0.2c1.8-1.7,4.1-2.6,6.6-2.6c1.1,0,2.1,0.2,3.2,0.5c0.1,0,0.3,0.1,0.4,0.1
				c1.3,0.5,2.4,1.2,3.3,2c0,0,0,0,0,0c2.2,2.1,3.2,5,3,7.9c-0.1,0.4-0.2,0.8-0.2,1.2c-0.1,1.3,0.4,2.6,1.3,3.6l10.6,11.5l10.5,11.3
				c0,0.1,0.1,0.1,0.1,0.2l17.2,18.5c0.9,1,2.3,1.6,3.7,1.6c0,0,0,0,0.1,0c1.4,0,2.7-0.6,3.7-1.7c0.3-0.3,7.4-8.4,11.5-20.1
				c0.8-2.3,2.3-5.3,4.4-8.6c0.1-0.2,0.3-0.3,0.4-0.5c5.5-8.9,14.4-19.4,18.9-23.2c1-0.9,1.7-2.1,1.8-3.5c0.1-1.4-0.4-2.7-1.3-3.7
				l-12-13.1l-10.5-11.5l-10.5-11.5c-0.9-1-2.2-1.6-3.6-1.6c0,0-0.1,0-0.1,0c-1.3,0-2.6,0.5-3.5,1.5l-0.4,0.4
				c-0.2,0.2-0.3,0.3-0.5,0.5c0,0-0.1,0.1-0.2,0.2c-0.6,0.6-1,0.9-1.2,1.1c-0.2,0.1-0.3,0.2-0.5,0.4c-1.6,1.1-3.5,1.7-5.5,1.7
				c-2.5,0-5-1-6.9-2.7c-3.4-3.4-3.9-8.7-1.3-12.6c0.2-0.2,0.3-0.4,0.5-0.6c0.1-0.2,0.3-0.4,0.4-0.5c0,0,0,0,0.1-0.1
				c1.9-1.9,4.4-3,7.1-3c1.4,0,2.7,0.3,3.9,0.8c0.4,0.2,0.9,0.3,1.4,0.4l2.3,0.3l7.5,1l5.4,5.8l10.6,11.5l12.9,14
				c0.1,0.2,0.3,0.4,0.5,0.6l11.3,12.2c1,1.1,2.3,1.6,3.7,1.6c1,0,1.9-0.3,2.8-0.8c4-2.6,10.6-6.7,12.8-7.3c2.9-0.9,6.5-3,9.1-4.8
				c0.3-0.1,0.5-0.3,0.8-0.5c3.1-2.2,6.1-4.7,8.5-7c0.2-0.2,0.3-0.3,0.5-0.5c0,0,1.3-1.6,3.2-4c0.2-0.2,0.4-0.5,0.5-0.8
				c2.5-2.8,5.9-6.7,9.6-10.1c0,0,0.1-0.1,0.1-0.1c2.5-2.4,6.4-6,11.4-9.8c0,0,0,0,0,0c3.9-3,8.1-5.6,12.4-7.7
				c1.4-0.7,2.4-2,2.7-3.6c0.3-1.6-0.2-3.2-1.3-4.3l-20.3-21.7C557.4,60.6,556.1,60.1,554.7,60.1L554.7,60.1z"/>
		</g>
		<g class="st2">
			<path class="st3" d="M310.1,432.3l21.2,22.9l-11.7,10.8l-21-23.2C305,435.8,310.1,432.3,310.1,432.3 M310.1,427.3
				c-1,0-2,0.3-2.8,0.9c-0.2,0.2-5.7,3.9-12.3,11.1c-1.8,1.9-1.8,4.8,0,6.7l21,23.2c0.9,1,2.1,1.6,3.5,1.6c0.1,0,0.2,0,0.2,0
				c1.3,0,2.5-0.5,3.4-1.3l11.7-10.8c1-0.9,1.6-2.2,1.6-3.5s-0.4-2.6-1.3-3.6l-21.2-22.9C312.8,427.8,311.5,427.3,310.1,427.3
				L310.1,427.3z"/>
		</g>
		<g class="st2">
			<path class="st3" d="M362.2,369.4l13.9,15l-22.9,21l-9.9-10.7c2-2.9,1.8-5.7,7.3-13.4C356,373.7,362.2,369.4,362.2,369.4
				 M362.2,364.4c-1,0-2,0.3-2.9,0.9c-0.3,0.2-6.9,4.9-12.8,13.1c-3.8,5.3-5.1,8.5-6.1,10.9c-0.5,1.1-0.8,1.9-1.2,2.5
				c-1.3,1.9-1.1,4.5,0.5,6.2l9.9,10.7c1,1.1,2.3,1.6,3.7,1.6c1.2,0,2.4-0.4,3.4-1.3l22.9-21c1-0.9,1.6-2.2,1.6-3.5
				c0.1-1.3-0.4-2.6-1.3-3.6l-13.9-15C364.9,364.9,363.5,364.4,362.2,364.4L362.2,364.4z"/>
		</g>
	</g>
</g>
<g id="green">
	<polygon class="st4" points="85.1,144.8 81.6,141.1 123.2,83.9 138.8,88 	"/>
	<polygon class="st4" points="256.4,110.1 309.4,91.3 360.2,99.1 298.8,156.1 	"/>
	<polygon class="st5" points="617.6,82 630.4,70.1 632.4,72.4 619.6,84.3 	"/>
	<path class="st4" d="M573.2,104.8c0,0,13.6,1.1,12.2,15c0,0-0.2,6.5-7.3,10.9c0,0-6.9,5.2-11.6,14.8c-4.7,9.6-22.4,23.7-32.7,26.2
		l-19.4-21.1c0,0,21.8-11,26.2-14.9C544.9,131.8,555.9,117.9,573.2,104.8z"/>
	<path class="st4" d="M501.8,161.2l18.5,19.8c0,0-5.6,3.9-15.1,19.5c0,0-2.3,7.7-9.9,19.9s-20.6,24.8-28.1,30.1
		c-7.5,5.3-13.6,9.8-24.1,13.9c-10.5,4.1-18.1,16.1-22.6,22.9l-19.3-20.6c0,0,12.3-16.8,22.8-23s13.4-8.6,22.2-12.9
		c8.8-4.2,26.2-21.6,27.9-28.1s9.2-18.8,9.2-18.8S491.8,170,501.8,161.2z"/>
	<path class="st4" d="M394,282.1l18.8,20.4c0,0-6.4,12.1-16.6,22.5s-22.4,18.9-26.3,20.7c-3.8,1.8-20.2,11.9-26.7,19.9
		c-6.4,8-11.9,17.6-12.8,20.4c-0.9,2.7-7.6,16.5-15.5,24.8l-19.4-20.9c0,0,8.6-11,10.1-16.6c1.5-5.6,11.5-21.7,15.6-25.4
		c0,0,11.2-12.4,15.3-14.1c0,0,8-5.8,15.5-10.2s22-13.8,25.3-19.1C377.4,304.4,391.4,289.1,394,282.1z"/>
	<polygon class="st6" points="185.5,237.5 228.1,282.3 174.3,333.1 135.3,291.6 	"/>
	<g>
		<path class="st7" d="M179.9,82c-0.2,0-0.3,0-0.5-0.1l-47.6-12.4c-0.6-0.2-1.1-0.6-1.4-1.2c-0.2-0.6-0.1-1.3,0.2-1.8l18.6-26.9
			c0.3-0.5,0.9-0.8,1.4-0.8c0.1,0,0.1,0,0.2,0c0.5,0,1,0.2,1.4,0.5l0.3,0.3l34.6,9c1,0.3,1.7,1.3,1.4,2.4l-6.8,29.4
			c-0.1,0.5-0.4,1-0.9,1.3C180.6,81.9,180.3,82,179.9,82z"/>
		<path class="st8" d="M151,40.8l0.7,0.6l35.1,9.2L179.9,80l-47.6-12.4L151,40.8 M151,36.8c-0.1,0-0.3,0-0.4,0
			c-1.2,0.1-2.2,0.7-2.9,1.7L129,65.4c-0.7,1.1-0.9,2.4-0.5,3.7c0.5,1.2,1.5,2.2,2.7,2.5l47.6,12.4c0.3,0.1,0.7,0.1,1,0.1
			c0.7,0,1.4-0.2,2.1-0.6c0.9-0.6,1.6-1.5,1.8-2.5l6.8-29.4c0.5-2.1-0.8-4.2-2.9-4.8l-34.1-8.9C152.9,37.2,151.9,36.8,151,36.8
			L151,36.8z"/>
	</g>
</g>
<g id="details">
	<path class="st7" d="M283.3,416.6c0,0,4.6-7.1,6.5-11l10.4,11c0,0-5.2,3.1-7.1,6.2L283.3,416.6z"/>
	<path class="st7" d="M276.5,427.8l9.5,6.1c0,0-1.6,4.3-7.1,3.6S274.2,429.4,276.5,427.8z"/>
	<path class="st7" d="M292.1,445.3l4.6-9.4l1.4,0.9C298.1,436.7,295.1,442.5,292.1,445.3z"/>
	<path class="st7" d="M261.4,425.8c0,0,3.7-4.4,6.2-8.2l1.3,0.8C269,418.4,263.9,425.8,261.4,425.8z"/>
	<polygon class="st9" points="264.7,415.1 269.1,418.4 269.6,417.6 278.4,423.2 278.4,424.7 287.5,430.2 288.2,429.1 301.1,437.8 
		304.1,432.9 300.5,430.5 299.1,430.7 290.7,425.4 292,423.1 282.3,416.9 280.9,419.1 267.6,410.3 264.5,415.1 	"/>
	<polygon class="st10" points="286.1,433.9 289.1,429.6 288.2,429.1 287.5,430.2 278.4,424.7 276.5,427.8 	"/>
</g>
<g id="lots">
	<sodipodi:namedview  bordercolor="#eeeeee" borderopacity="1" id="namedview7" pagecolor="#ffffff" showgrid="false">
		</sodipodi:namedview>
	<g class="st2">
		<polygon class="st11" points="107.3,23.8 117.5,9.8 140.2,29.6 131.7,41.4 		"/>
		<path class="st12" d="M117.6,10.5l21.9,19.2l-8,11.1l-23.5-17L117.6,10.5 M117.4,9l-10.8,14.9l25.1,18.2l9.1-12.6L117.4,9L117.4,9
			z"/>
	</g>
	<g class="st2">
		
			<rect x="107.4" y="24.3" transform="matrix(0.5855 -0.8107 0.8107 0.5855 15.616 109.2645)" class="st11" width="14.5" height="30"/>
		<path class="st12" d="M106.8,25.4l23.5,17l-7.9,11l-23.5-17L106.8,25.4 M106.6,24l-9.1,12.6l25.2,18.2l9.1-12.6L106.6,24L106.6,24
			z"/>
	</g>
	<g class="st2">
		<polygon class="st11" points="89.1,49 97.7,37.2 122,54.8 113.5,66.6 		"/>
		<path class="st12" d="M97.8,37.9l23.5,17l-7.9,11l-23.6-17L97.8,37.9 M97.6,36.5l-9.2,12.6l25.2,18.2l9.1-12.6L97.6,36.5
			L97.6,36.5z"/>
	</g>
	<g class="st2">
		<polygon class="st11" points="79.9,61.8 88.5,49.8 112.9,67.4 104.3,79.3 		"/>
		<path class="st12" d="M88.6,50.5l23.6,17l-8,11.1L80.6,61.7L88.6,50.5 M88.4,49.1l-9.2,12.8L104.4,80l9.2-12.7L88.4,49.1
			L88.4,49.1z"/>
	</g>
	<g class="st2">
		<polygon class="st11" points="70.9,74.2 79.3,62.6 103.7,80.1 95.2,91.9 		"/>
		<path class="st12" d="M79.4,63.3L103,80.2l-7.9,11L71.6,74.1L79.4,63.3 M79.2,61.9l-9,12.5l25.1,18.3l9.1-12.6L79.2,61.9
			L79.2,61.9z"/>
	</g>
	<g class="st2">
		<polygon class="st11" points="61.7,86.9 70.3,75.1 94.6,92.7 86.1,104.5 		"/>
		<path class="st12" d="M70.4,75.8l23.5,17.1l-8,11l-23.5-17L70.4,75.8 M70.2,74.4L61,87l25.1,18.2l9.2-12.6L70.2,74.4L70.2,74.4z"
			/>
	</g>
	<g class="st2">
		<polygon class="st11" points="52.6,99.5 61.1,87.7 85.5,105.3 77,117.1 		"/>
		<path class="st12" d="M61.2,88.4l23.5,17l-7.9,10.9L53.3,99.4L61.2,88.4 M61,87l-9.1,12.6l25.2,18.1l9-12.5L61,87L61,87z"/>
	</g>
	<g class="st2">
		<polygon class="st11" points="43.5,112.1 52,100.3 76.4,117.9 67.9,129.7 		"/>
		<path class="st12" d="M52.2,101L75.8,118l-7.9,11L44.2,112L52.2,101 M51.9,99.7l-9.1,12.6l25.2,18.1l9.1-12.6L51.9,99.7L51.9,99.7
			z"/>
	</g>
	<g class="st2">
		<polygon class="st11" points="31.7,128.5 42.9,113 67.4,130.5 58.6,142.7 56.1,146 		"/>
		<path class="st12" d="M43.1,113.7l23.6,16.9l-8.5,11.8l-2.2,2.9l-23.6-16.9L43.1,113.7 M42.8,112.3L31,128.6l25.2,18.1L59,143
			l9.1-12.6L42.8,112.3L42.8,112.3z"/>
	</g>
	<g class="st2">
		<polygon class="st11" points="10.2,158.3 31.1,129.3 56.3,147.4 59,143.8 74.9,160.7 49.6,200.2 		"/>
		<path class="st12" d="M31.2,130l24.4,17.5l0.8,0.6l0.6-0.8l2-2.8l15.2,16.2l-24.8,38.6l-38.7-41.1L31.2,130 M31,128.6L9.5,158.3
			L49.6,201l25.9-40.4L59,143l-2.8,3.7L31,128.6L31,128.6z"/>
	</g>
	<g class="st2">
		<polygon class="st11" points="50.3,200.9 75.6,161.4 84.7,171.1 105.8,193.6 74.5,226.6 		"/>
		<path class="st12" d="M75.7,162.3l8.7,9.2l20.8,22.2l-20.2,21.3l-10.4,11l-23.6-25L75.7,162.3 M75.5,160.6L49.6,201l24.8,26.4
			l11.2-11.8l20.9-22l-21.4-22.9L75.5,160.6L75.5,160.6z"/>
	</g>
	<g class="st2">
		<path class="st11" d="M75.2,227.4l10.5-11.1l19,17.6c-1.6,5-0.5,10.5,2.8,14.6l-6.6,6.2L75.2,227.4z"/>
		<path class="st12" d="M85.7,217l18.4,17.1c-1.4,4.9-0.4,10.3,2.7,14.4l-5.9,5.5l-25-26.6L85.7,217 M85.6,215.6l-11.2,11.8l26.4,28
			l7.3-6.9c-3.6-4.1-4.6-9.8-2.9-14.7L85.6,215.6L85.6,215.6z"/>
	</g>
	<g class="st2">
		<path class="st11" d="M101.5,255.4l6.5-6.2c0.2,0.2,0.4,0.4,0.6,0.5c2.8,2.7,6.6,4.2,10.5,4.2c1,0,2-0.1,2.9-0.3l19.4,18.1
			l-12.3,13L101.5,255.4z"/>
		<path class="st12" d="M108.1,249.9c0.1,0.1,0.2,0.1,0.2,0.2c3,2.8,6.8,4.4,10.9,4.4c0.9,0,1.8-0.1,2.8-0.2l18.8,17.6l-11.6,12.3
			l-26.9-28.7L108.1,249.9 M108.1,248.5l-7.3,6.9l28.4,30.2l13-13.8l-19.9-18.6c-1,0.2-2,0.3-3.1,0.3c-3.7,0-7.4-1.4-10.2-4.1
			C108.6,249.1,108.3,248.8,108.1,248.5L108.1,248.5z"/>
	</g>
	<g class="st2">
		<path class="st11" d="M123.3,253.4c2.7-0.7,5.1-2.2,7-4.1c2.6-2.6,4.1-6.1,4.2-9.8l20,18.5l-12.3,13L123.3,253.4z"/>
		<path class="st12" d="M134.9,240.6l18.9,17.4l-11.6,12.3l-17.9-16.7c2.4-0.8,4.6-2.2,6.4-4C133,247.2,134.5,244,134.9,240.6
			 M134,238.4c0.1,3.8-1.3,7.6-4.1,10.5c-2.1,2.2-4.8,3.6-7.6,4.2l19.9,18.6l13-13.8L134,238.4L134,238.4z"/>
	</g>
	<g class="st2">
		<path class="st11" d="M211.7,198.6l16.1-17l20.1,19.3l-0.3,0.3c-3.6,3.8-5.1,9-3.9,14l-7.4,7L211.7,198.6z"/>
		<path class="st12" d="M227.9,182.3l19.4,18.6c-3.6,3.8-5.1,9-4.1,14.1l-6.8,6.5l-23.9-23l2.1-2.2L227.9,182.3 M227.9,180.9
			l-14.1,14.8l-2.8,2.9l25.3,24.3l7.9-7.6c-1.1-4.7,0.1-10,3.7-13.8c0.2-0.2,0.4-0.4,0.5-0.5l0.2-0.1l-0.1-0.1L227.9,180.9
			L227.9,180.9z"/>
	</g>
	<g class="st2">
		<path class="st11" d="M237.1,222.9l7-6.6c0.7,2.4,2.2,4.7,4.2,6.5c2.9,2.8,6.6,4.3,10.7,4.3c2.6,0,5.2-0.7,7.4-1.9l21.9,21.1
			l-12.8,13.2L237.1,222.9z"/>
		<path class="st12" d="M243.8,217.2c0.8,2.2,2.2,4.3,4.1,6c3,2.9,6.9,4.5,11,4.5c2.6,0,5.1-0.6,7.3-1.8l21.3,20.5l-12.1,12.5
			l-37.6-36L243.8,217.2 M244.3,215.4l-7.9,7.6l39.1,37.4l13.5-14l-22.5-21.7c-2.3,1.4-4.9,2-7.5,2c-3.7,0-7.4-1.4-10.3-4.2
			C246.4,220.5,244.9,218,244.3,215.4L244.3,215.4z"/>
	</g>
	<g class="st2">
		<path class="st11" d="M280.2,264.3l-4.1-4l13.1-13.6l13.5-14.1l3.7,4l7.3,7.9l-13.5,12.3l0.1,7.8c-0.4,0-0.7,0-1.1,0
			c-4.2,0-8,1.6-10.9,4.6c-0.6,0.6-1,1.2-1.4,1.8L280.2,264.3z"/>
		<path class="st12" d="M302.7,233.3l3.3,3.7l7,7.5l-13,11.8l-0.3,0.3l0,0.4l0.1,7c-0.2,0-0.4,0-0.6,0c-4.3,0-8.3,1.7-11.3,4.7
			c-0.4,0.4-0.8,0.9-1.1,1.4l-6.3-6.2l-3.7-3.7l12.8-13.2L302.7,233.3 M302.7,231.9l-13.9,14.5l-13.5,13.9l4.4,4.4l7.2,7
			c0.5-0.8,1-1.5,1.7-2.2c2.9-3,6.7-4.4,10.6-4.4c0.5,0,1,0,1.6,0.1l-0.1-8.1l13.7-12.5l-7.7-8.2L302.7,231.9L302.7,231.9z"/>
	</g>
	<g class="st2">
		<path class="st11" d="M263.1,307.3l-11.5-12.5l28.3-29.4l6.5,6.4c-3,4.9-3.1,11.2-0.3,16l-22,20.5L263.1,307.3z"/>
		<path class="st12" d="M279.9,266.1l5.8,5.8c-2.8,4.9-3,11-0.3,15.8L264,307.5l-0.5-0.6l-11.2-12.1L279.9,266.1 M279.9,264.6
			l-29,30.1l11.8,12.8l1.2,1.3l22.7-21.1l-0.2-0.2l0.2,0.2c-3.1-4.8-2.8-11.3,0.3-16.1L279.9,264.6L279.9,264.6z"/>
	</g>
	<g class="st2">
		<path class="st11" d="M294.8,341.5l-9.1-9.8l22-20.4l13.8,14.9c-9.3,8-16,16.5-20.1,22.5L294.8,341.5z"/>
		<path class="st12" d="M307.7,312l13.1,14.2c-8.9,7.7-15.4,15.9-19.5,21.8l-6.3-6.8l-8.7-9.4L307.7,312 M307.8,310.6L285,331.7
			l9.4,10.2l7.1,7.7c5.1-7.6,12.2-16,20.8-23.3L307.8,310.6L307.8,310.6z"/>
	</g>
	<g class="st2">
		<path class="st11" d="M272.3,363l22-20.4l6.5,7c-4.6,6.8-7.6,12.6-8.8,15.7c-2.2,5.9-5.2,10.7-6.2,12.2L272.3,363z"/>
		<path class="st12" d="M294.4,343.2l5.9,6.3c-4.5,6.7-7.4,12.4-8.6,15.5c-1.9,5.3-4.6,9.7-5.8,11.6L273.1,363L294.4,343.2
			 M294.4,341.8l-22.8,21.1l14.3,15.4c0,0,4-5.5,6.6-12.8c1.3-3.4,4.4-9.3,8.9-16L294.4,341.8L294.4,341.8z"/>
	</g>
	<g class="st2">
		<polygon class="st11" points="261.9,351.6 283.8,331.1 284.7,332 293.7,341.8 271.7,362.2 		"/>
		<path class="st12" d="M283.8,331.9l0.5,0.5l8.7,9.4l-21.3,19.7l-9.1-9.9L283.8,331.9 M283.9,330.4l-22.7,21.1l10.5,11.4l22.8-21.1
			l-9.4-10.2L283.9,330.4L283.9,330.4z"/>
	</g>
	<g class="st2">
		<polygon class="st11" points="251.3,340.2 273.3,319.7 274.2,320.6 283.2,330.4 261.2,350.8 		"/>
		<path class="st12" d="M273.3,320.4l0.5,0.6l8.7,9.4l-21.2,19.7l-9.2-9.9L273.3,320.4 M273.3,319l-22.7,21.2l10.5,11.4l22.7-21.1
			l-9.3-10.2L273.3,319L273.3,319z"/>
	</g>
	<g class="st2">
		<path class="st11" d="M247.4,335.9c-0.3-0.4-0.7-0.8-1.1-1.2l-0.2-0.2c-2.1-2-4.8-3.4-7.5-3.9l24-22.5l1.1,1.2l8.8,9.6l-22,20.5
			L247.4,335.9z"/>
		<path class="st12" d="M262.6,308.8l0.8,0.8l8.5,9.3l-21.2,19.8l-2.9-3.1c-0.3-0.4-0.7-0.8-1.1-1.2l-0.2-0.2
			c-2-1.8-4.3-3.2-6.8-3.8L262.6,308.8 M262.7,307.4L237.6,331c2.9,0.4,5.9,1.8,8.3,4l0.2,0.2c0.4,0.4,0.8,0.8,1.1,1.1l3.6,3.9
			l22.7-21.2l-9.2-10L262.7,307.4L262.7,307.4z"/>
	</g>
	<g class="st2">
		<path class="st11" d="M217,330.6l33.8-35.2l11.2,12.1l-24.7,23c-0.6-0.1-1.2-0.1-1.8-0.1c-4.2,0-8.1,1.7-11.1,4.7
			c-0.5,0.5-0.9,1-1.3,1.6L217,330.6z"/>
		<path class="st12" d="M250.8,296.1l10.5,11.3l-24.1,22.5c-0.5-0.1-1.1-0.1-1.6-0.1c-4.3,0-8.4,1.7-11.4,4.9
			c-0.4,0.4-0.7,0.7-1,1.2l-5.4-5.3L250.8,296.1 M250.9,294.7l-34.5,35.9l7,6.8c0.5-0.7,1-1.4,1.6-2c2.9-3,6.8-4.6,10.7-4.6
			c0.7,0,1.3,0,2,0.1l25.2-23.5L250.9,294.7L250.9,294.7z"/>
	</g>
	<g class="st2">
		<path class="st11" d="M194.3,354.3l22.1-23l6.3,6.2c-3.9,6.2-3,14.2,2.3,19.2c0.3,0.3,0.5,0.5,0.8,0.7l-3.9,3.6l-11.3,10.5
			L194.3,354.3z"/>
		<path class="st12" d="M216.4,332l5.7,5.5c-3.8,6.3-2.8,14.4,2.6,19.5c0.1,0.1,0.3,0.3,0.4,0.4l-3.5,3.3l-10.9,10.2L195,354.3
			L216.4,332 M216.4,330.6l-22.8,23.7l17,18l11.6-10.9l4.4-4.1c-0.5-0.3-0.8-0.7-1.2-1.1c-5.3-5-6-13.1-2-19L216.4,330.6
			L216.4,330.6z"/>
	</g>
	<g class="st2">
		<polygon class="st11" points="211.3,372.4 222.2,362.2 245,386.9 234.4,396.9 		"/>
		<path class="st12" d="M222.1,362.9l22.2,24l-9.9,9.3L212,372.4L222.1,362.9 M222.2,361.5l-11.6,10.9l23.8,25.2l11.4-10.7
			L222.2,361.5L222.2,361.5z"/>
	</g>
	<g class="st2">
		<path class="st11" d="M222.9,361.6l3.7-3.4c2.6,1.9,5.8,3,9.1,3c2.3,0,4.6-0.5,6.7-1.5l14.8,15.9l-11.4,10.8L222.9,361.6z"/>
		<path class="st12" d="M226.6,358.8c2.6,1.8,5.8,2.8,9,2.8c2.3,0,4.5-0.5,6.6-1.4l14.3,15.3l-10.7,10.1l-22.2-24L226.6,358.8
			 M226.6,357.5l-4.4,4.1l23.5,25.4l12.2-11.5L242.4,359c-2.1,1.1-4.4,1.7-6.8,1.7C232.5,360.6,229.2,359.6,226.6,357.5L226.6,357.5
			z"/>
	</g>
	<g class="st2">
		<path class="st11" d="M246.4,387l11.4-10.8l17.8,19.3c-0.9,1.6-4.9,8.6-8.3,14.2L246.4,387z"/>
		<path class="st12" d="M257.8,377l17.2,18.7c-1.1,2-4.6,8.2-7.7,13.3L247.1,387L257.8,377 M257.9,375.5L245.7,387l21.8,23.5
			c3.9-6.3,8.8-15.1,8.8-15.1L257.9,375.5L257.9,375.5z"/>
	</g>
	<g class="st2">
		<path class="st11" d="M235.1,397.6l10.7-10l21.2,22.9c-1.6,2.6-3.2,5-4,5.7c-2.1,1.9-3.4,5.2-4,6.8L235.1,397.6z"/>
		<path class="st12" d="M245.7,388.3l20.6,22.2c-1.1,1.8-2.9,4.6-3.7,5.3c-1.8,1.7-3.1,4.5-3.8,6.2l-23-24.4L245.7,388.3
			 M245.7,386.9l-11.4,10.7l24.8,26.3c0,0,1.5-4.9,4.1-7.3c0.8-0.8,2.4-3.2,4.3-6.1L245.7,386.9L245.7,386.9z"/>
	</g>
	<g class="st2">
		<polygon class="st11" points="208.2,86.8 232.3,61.2 248.2,65.1 244.5,95.8 		"/>
		<path class="st12" d="M232.5,61.7l15.2,3.7l-3.6,29.8l-35-8.6L232.5,61.7 M232.1,60.6l-24.9,26.5l37.8,9.3l3.8-31.9l-0.2,0.1
			L232.1,60.6L232.1,60.6z"/>
	</g>
	<g class="st2">
		<polygon class="st11" points="249.3,64.9 257.8,59.7 262.8,57.7 271.3,86.6 245.6,95.7 		"/>
		<path class="st12" d="M262.5,58.4l8.2,27.9L246.2,95l3.6-29.8l8.2-5L262.5,58.4 M263.2,57.1L263.2,57.1l-5.7,2.1l-8.7,5.3
			L245,96.4l27-9.6L263.2,57.1L263.2,57.1z"/>
	</g>
	<g class="st2">
		<polygon class="st11" points="263.8,57.3 267,55.6 282.8,55.1 283.7,54.3 292.5,79.2 272.3,86.2 		"/>
		<path class="st12" d="M283.5,55.2l8.4,23.7l-19.2,6.7l-8.3-28l2.8-1.5l15.5-0.5l0.4,0l0.3-0.2L283.5,55.2 M283.9,53.5l-0.2,0.1
			l-1.1,1l-15.7,0.5l-3.7,2l8.8,29.8l21.2-7.4L283.9,53.5L283.9,53.5z"/>
	</g>
	<g class="st2">
		<polygon class="st11" points="284.6,53.7 295.4,47.4 299.4,43 306.3,40.2 311.8,38.9 307.3,73.9 293.4,78.8 		"/>
		<path class="st12" d="M311.2,39.6l-4.3,34l-13.1,4.7l-8.6-24.3l10.4-6.1l0.1-0.1l0.1-0.1l3.9-4.3l6.7-2.7L311.2,39.6 M312.4,38.4
			h-0.5l-5.8,1.4l-7,2.8l-4.1,4.4l-11.2,6.5l9.2,26l14.7-5.2L312.4,38.4L312.4,38.4z"/>
	</g>
	<g class="st2">
		<polygon class="st11" points="308.4,73.8 312.8,38.9 323.2,38.7 328,41.2 322.7,76 		"/>
		<path class="st12" d="M323.1,39.2l4.3,2.3l-5.1,33.9l-13.4-2.1l4.3-34L323.1,39.2 M323.3,38.2l-10.9,0.2l-4.6,35.9l0.2-0.1
			l15.2,2.4l5.3-35.6L323.3,38.2L323.3,38.2z"/>
	</g>
	<g class="st2">
		<polygon class="st11" points="323.7,76.2 328.9,41.7 342.5,49 338.2,78.4 		"/>
		<path class="st12" d="M329.3,42.5l12.7,6.7l-4.1,28.6l-13.5-2.1L329.3,42.5 M328.5,41l-5.3,35.6l15.5,2.4l4.4-30.3L328.5,41
			L328.5,41z"/>
	</g>
	<g class="st2">
		<polygon class="st11" points="339.2,78.5 343.4,49.5 359.2,57.9 355.9,81 		"/>
		<path class="st12" d="M343.8,50.2l14.9,7.9l-3.2,22.3l-15.7-2.4L343.8,50.2 M343,48.7l-4.4,30.3l17.7,2.7l3.4-24L343,48.7
			L343,48.7z"/>
	</g>
	<g class="st2">
		<polygon class="st11" points="356.9,81.2 360.1,58.4 377.1,67.4 388.6,70.7 374.3,83.9 		"/>
		<path class="st12" d="M360.5,59.2l16.2,8.7l0.1,0l0.1,0l10.6,3l-13.5,12.4l-16.7-2.6L360.5,59.2 M359.8,57.6l-3.4,24l18.1,2.8
			l15.1-14l-12.3-3.5L359.8,57.6L359.8,57.6z"/>
	</g>
	<g class="st2">
		<path class="st11" d="M408.1,79.5l4.3-3.9l32.5,4.9l10.9,0.4l-2,11.4l-1.8-0.2c-1.9-0.8-4-1.3-6.1-1.3c-4.2,0-8.2,1.7-11.1,4.7
			c-0.4,0.4-0.8,0.9-1.1,1.3l-5.1,4.7L408.1,79.5z"/>
		<path class="st12" d="M412.5,76.1l32.3,4.8l0.1,0l0.1,0l10.2,0.4l-1.8,10.4l-1.3-0.2c-2-0.9-4.1-1.3-6.2-1.3
			c-4.3,0-8.5,1.8-11.4,4.8c-0.4,0.4-0.8,0.9-1.1,1.4l-4.7,4.4l-19.8-21.3L412.5,76.1 M412.2,75l-4.8,4.4l21.2,22.8l5.5-5.1
			c0.3-0.5,0.7-0.9,1.1-1.3c2.9-3,6.8-4.5,10.7-4.5c2,0,4.1,0.4,6,1.3l2.4,0.3l2.2-12.5h-0.1L445,79.9L412.2,75L412.2,75z
			 M456.4,80.3L456.4,80.3L456.4,80.3L456.4,80.3L456.4,80.3z"/>
	</g>
	<g class="st2">
		<path class="st11" d="M510.7,84.9l-6.1-6.6l8.4-0.6l8.1-2.9l28,30.3c-3.9,3.6-7.4,7.7-9.9,10.5L510.7,84.9z"/>
		<path class="st12" d="M520.9,75.4l27.5,29.7c-3.6,3.4-6.8,7.1-9.2,9.8L511,84.5l-5.4-5.8l7.3-0.5l0.1,0l0.1,0L520.9,75.4
			 M521.2,74.2l-8.3,3l-9.4,0.7l6.8,7.3l28.9,31.1c2.7-3.1,6.5-7.4,10.6-11.2L521.2,74.2L521.2,74.2z"/>
	</g>
	<g class="st2">
		<path class="st11" d="M522.1,74.4l3-1.1l2.6-1.4l9.7-2.4l23.4,25.3c-4.8,3.7-8.5,7.1-11.1,9.5L522.1,74.4z"/>
		<path class="st12" d="M537.3,70.1l22.8,24.7c-4.4,3.4-7.8,6.5-10.3,8.9l-26.9-29l2.3-0.9l0.1,0l0.1,0l2.5-1.3L537.3,70.1
			 M537.7,69l-10.1,2.4l-2.6,1.4l-3.7,1.4l28.6,30.9c2.6-2.4,6.6-6.2,11.8-10.2L537.7,69L537.7,69z"/>
	</g>
	<g class="st2">
		<path class="st11" d="M538.6,69.4l15.9-3.9l19.6,21c-4.3,2.2-8.4,4.8-12.3,7.7L538.6,69.4z"/>
		<path class="st12" d="M554.3,66.1l18.9,20.3c-4,2-7.8,4.5-11.5,7.2l-22.2-23.9L554.3,66.1 M554.6,65l-17,4.1l24,25.8
			c3.7-2.8,8.1-5.7,13.2-8.3L554.6,65L554.6,65z"/>
	</g>
	<g class="st2">
		<path class="st11" d="M555.6,65.2l4.9-1.2l7.8-0.6l6.7-1.6l16.9,18.3c-5.8,1.4-11.4,3.4-16.8,6.1L555.6,65.2z"/>
		<path class="st12" d="M574.8,62.2l16.1,17.4c-5.4,1.4-10.7,3.3-15.8,5.8l-18.6-20l4-1l7.8-0.6l0.1,0l0.1,0L574.8,62.2 M575.1,61.1
			l-6.9,1.7l-7.9,0.6l-5.7,1.5l20.3,21.8c5.2-2.6,11.2-4.9,17.9-6.4L575.1,61.1L575.1,61.1z"/>
	</g>
	<g class="st2">
		<path class="st11" d="M576.1,61.4l4.3-1.1l37.3,5.5l-12.5,11.6l-1.2,0.5c-4.2,0.3-8,1.1-10.9,1.7L576.1,61.4z"/>
		<path class="st12" d="M580.4,60.9l36.2,5.3L604.8,77l-1.1,0.5c-4,0.3-7.8,1-10.6,1.6L577,61.7L580.4,60.9 M580.3,59.8l-5.2,1.3
			l17.7,19.1c3.5-0.8,7.3-1.5,11.2-1.8l1.4-0.6l13.4-12.4L580.3,59.8L580.3,59.8z"/>
	</g>
	<g class="st2">
		<path class="st11" d="M425.4,425c0.1-0.1,0.2-0.2,0.3-0.3c3.4-3.5,4.9-8.6,4-13.6l20.7-19.3l9.7,10.4l-28.1,29.2L425.4,425z"/>
		<path class="st12" d="M450.3,392.5l9,9.7l-27.5,28.5l-5.8-5.8c3.5-3.6,5-8.7,4.1-13.7L450.3,392.5 M450.4,391.1l-21.3,19.8
			c1,4.7-0.2,9.8-3.8,13.5c-0.2,0.2-0.4,0.4-0.6,0.6l7.3,7.2l28.8-29.9L450.4,391.1L450.4,391.1z"/>
	</g>
	<g class="st2">
		<path class="st11" d="M448.6,388.4l19.6-18c0.9,0.2,1.9,0.3,2.8,0.3h0c4.2,0,8.2-1.7,11.1-4.7c0.5-0.5,1-1.1,1.4-1.7l6.7,6.6
			l-29.6,30.7L448.6,388.4z"/>
		<path class="st12" d="M483.6,365l5.9,5.8l-28.9,29.9l-9.6-10.4l-1.8-1.9l19.1-17.5c0.9,0.2,1.8,0.2,2.7,0.2
			c4.3,0,8.5-1.8,11.5-4.9C482.9,365.9,483.3,365.5,483.6,365 M483.5,363.5c-0.5,0.8-1.1,1.5-1.7,2.1c-2.9,3-6.9,4.6-10.8,4.6
			c-1,0-2-0.1-3-0.3l-20.2,18.5l2.4,2.6l10.3,11.2l30.3-31.4L483.5,363.5L483.5,363.5z"/>
	</g>
	<g class="st2">
		<path class="st11" d="M484.1,363.4c3.3-5.4,3-12.3-0.8-17.3l18.7-17.4l14.2,15.3L491,370.1L484.1,363.4z"/>
		<path class="st12" d="M502,329.4l0.3,0.3l13.2,14.2L491,369.4l-6.2-6.1c3.1-5.3,2.8-12.2-0.8-17.2L502,329.4 M502.1,328l-19.4,18
			c4.1,5,4.4,12.1,0.8,17.4l7.5,7.3l25.9-26.8L503,329.1L502.1,328L502.1,328z"/>
	</g>
	<g class="st2">
		<path class="st11" d="M537.6,308.4c0.2-0.2,0.4-0.4,0.7-0.7c3.3-3.4,4.8-8,4.2-12.7l20.8-19.3l9.3,10l-28.1,29.2L537.6,308.4z"/>
		<path class="st12" d="M563.1,276.4l8.6,9.3l-27.5,28.5l-6-5.7c0.1-0.1,0.2-0.2,0.3-0.3c3.3-3.4,4.9-8.1,4.3-12.9L563.1,276.4
			 M563.2,275l-21.3,19.9c0.7,4.4-0.6,9.1-4,12.5c-0.4,0.4-0.7,0.7-1.1,1l7.5,7.2l28.8-29.9L563.2,275L563.2,275z"/>
	</g>
	<g class="st2">
		<path class="st11" d="M503.8,329.1l18.8-17.4c1.5,0.5,3.1,0.7,4.7,0.7c3.5,0,6.9-1.2,9.6-3.4l6.8,6.5l-26.7,27.7L503.8,329.1z"/>
		<path class="st12" d="M536.8,309.7l6.1,5.9l-26,26.9l-12.4-13.4l18.2-16.9c1.5,0.5,3.1,0.7,4.6,0.7
			C530.7,312.9,534.1,311.8,536.8,309.7 M536.8,308.4c-2.7,2.4-6.1,3.6-9.6,3.6c-1.6,0-3.3-0.3-4.9-0.8l-19.3,18l13.8,14.9
			l27.4-28.4L536.8,308.4L536.8,308.4z"/>
	</g>
	<g class="st2">
		<path class="st11" d="M563.5,274.6l-3.8-4l18.9-17.4c1.6,0.5,3.2,0.8,4.9,0.8c4,0,7.8-1.5,10.7-4.3l6.7,6.5l-27.8,28.8
			L563.5,274.6z"/>
		<path class="st12" d="M594.2,250.3l6,5.8l-27.1,28.1l-9.3-10l-3.5-3.7l18.3-16.9c1.6,0.5,3.2,0.7,4.8,0.7
			C587.5,254.4,591.3,253,594.2,250.3 M594.2,248.9c-2.9,3-6.8,4.5-10.7,4.5c-1.7,0-3.4-0.3-5-0.9l-19.5,18l4.2,4.4l10,10.7
			l28.5-29.6L594.2,248.9L594.2,248.9z"/>
	</g>
	<g class="st2">
		<path class="st11" d="M594.8,249c3.9-4.4,5-10.7,2.8-16.1l19.3-18.1l11.5,12.6l-26.9,28L594.8,249z"/>
		<path class="st12" d="M616.9,215.6l10.8,11.9l-26.2,27.3l-6-5.7c3.7-4.4,4.8-10.6,2.7-15.9L616.9,215.6 M617,214.2L597,232.9
			c2.4,5.3,1.4,11.8-2.9,16.2l7.4,7.1l27.6-28.7L617,214.2L617,214.2z"/>
	</g>
	<g class="st2">
		<path class="st11" d="M617.7,214.2l22.6-20.9c1.1,0.3,2.3,0.4,3.4,0.4c4.2,0,8.1-1.7,11-4.7c1.4-1.4,2.5-3.2,3.2-5.2l6.4,6.3
			l-35.2,36.6L617.7,214.2z"/>
		<path class="st12" d="M658.1,184.8l5.5,5.4L629.2,226l-10.8-11.8l22-20.4c1.1,0.2,2.2,0.3,3.3,0.3c4.3,0,8.4-1.7,11.4-4.9
			C656.4,188.1,657.4,186.5,658.1,184.8 M657.7,183c-0.6,2.1-1.8,4.1-3.4,5.7c-2.9,3-6.8,4.6-10.7,4.6c-1.2,0-2.4-0.1-3.6-0.4
			L617,214.2l12.2,13.3l35.9-37.4L657.7,183L657.7,183z"/>
	</g>
	<g class="st2">
		<path class="st11" d="M712.1,128.3c3.1-4.1,4-9.5,2.4-14.3l19.4-20.1l19.2,4.3l-34.8,36.1L712.1,128.3z"/>
		<path class="st12" d="M734,94.5l18,4.1l-33.8,35.1l-5.5-5.5c3-4.1,3.8-9.4,2.3-14.1L734,94.5 M733.7,93.4l-19.8,20.5
			c1.8,4.7,0.9,10.3-2.4,14.4l6.8,6.8L754,98L733.7,93.4L733.7,93.4z"/>
	</g>
	<g class="st2">
		<path class="st11" d="M674.1,156.2l23.6-22c0.2,0,0.5,0,0.7,0c0.5,0.1,1,0.1,1.5,0.1c4.1,0,8.1-1.7,11-4.7
			c0.2-0.2,0.4-0.4,0.6-0.6l6.1,6.1l-32.2,33.3L674.1,156.2z"/>
		<path class="st12" d="M711.5,129.8l5.4,5.4l-31.4,32.6l-10.6-11.5l23.1-21.5c0.2,0,0.3,0,0.5,0c0.5,0.1,1,0.1,1.6,0.1
			c4.3,0,8.3-1.7,11.3-4.8C711.3,129.9,711.4,129.8,711.5,129.8 M711.4,128.3c-0.2,0.3-0.5,0.6-0.9,1c-2.9,3-6.8,4.5-10.6,4.5
			c-0.5,0-1,0-1.5-0.1c-0.3,0-0.5,0-0.8-0.1l-24.1,22.5l12,13l32.9-34.1L711.4,128.3L711.4,128.3z"/>
	</g>
	<g class="st2">
		<path class="st11" d="M714.1,113c-0.8-1.9-2-3.6-3.5-5.1c-2.7-2.6-6.1-4-9.8-4.3l2.3-16.5l29.6,6.6L714.1,113z"/>
		<path class="st12" d="M703.5,87.7l28.2,6.3l-17.4,18.1c-0.8-1.7-1.9-3.2-3.3-4.6c-2.7-2.5-6-4-9.6-4.3L703.5,87.7 M702.7,86.4
			l-2.4,17.8c3.7,0.1,7.2,1.5,10,4.1c1.7,1.7,2.9,3.6,3.7,5.7l19.7-20.5l-30.7-6.9L702.7,86.4L702.7,86.4z"/>
	</g>
	<g class="st2">
		<path class="st11" d="M680.5,110.7l6-31.3l0.9,0l14.7,7.1l-2.3,17.1c-4.1,0-8,1.7-10.9,4.7c-1.1,1.2-2,2.4-2.5,3.5L680.5,110.7z"
			/>
		<path class="st12" d="M686.9,79.9l0.4,0l14.3,6.9l-2.2,16.3c-4.1,0.1-7.9,1.8-10.8,4.8c-1,1.1-1.8,2.2-2.4,3.3l-5.1-1L686.9,79.9
			 M686.1,78.9l-6.2,32.2l6.8,1.3c0.6-1.4,1.5-2.6,2.6-3.7c2.9-3,6.8-4.5,10.6-4.5c0.1,0,0.2,0,0.3,0l2.4-17.8l-0.2-0.2l-15-7.3
			L686.1,78.9L686.1,78.9z"/>
	</g>
	<g class="st2">
		<polygon class="st11" points="665.2,107.7 670.9,78 685.5,79.4 679.5,110.5 		"/>
		<path class="st12" d="M671.3,78.5l13.6,1.3l-5.8,30.1l-13.3-2.6L671.3,78.5 M670.5,77.4l-5.9,30.7l15.3,3l6.2-32.2h-0.5
			L670.5,77.4L670.5,77.4z"/>
	</g>
	<g class="st2">
		<polygon class="st11" points="649.1,104.5 654.8,75.1 664.6,77.2 669.9,77.8 664.2,107.5 		"/>
		<path class="st12" d="M655.2,75.7l9.3,2l0,0l0,0l4.7,0.6l-5.5,28.6l-14.1-2.8L655.2,75.7 M654.4,74.5l-5.8,30.4l15.9,3.1l0.2,0.1
			l5.9-30.7l-5.8-0.7L654.4,74.5L654.4,74.5z"/>
	</g>
	<g class="st2">
		<path class="st11" d="M628.5,100.5c-1.3-1.1-2-2.3-2-3.5c0-1.8,1.4-3.1,1.4-3.1L649.5,74l4.3,0.9l-5.6,29.4L628.5,100.5z"/>
		<path class="st12" d="M649.6,74.5l3.6,0.8l-5.4,28.5l-19-3.7c-1.1-1-1.7-2-1.8-3.1c0-1.6,1.2-2.8,1.2-2.8L649.6,74.5 M649.3,73.4
			l-21.8,20c0,0-4,3.6,0.8,7.5l20.3,4l5.8-30.4L649.3,73.4L649.3,73.4z"/>
	</g>
	<g class="st2">
		<polygon class="st11" points="85.8,170.7 96.7,159.1 118.9,179.8 108.5,190.7 106.5,192.8 		"/>
		<path class="st12" d="M96.8,159.8l21.4,20l-10,10.6l-1.6,1.7l-20-21.4L96.8,159.8 M96.7,158.4l-11.6,12.3l21.4,22.9l2.4-2.5
			l10.7-11.3L96.7,158.4L96.7,158.4z"/>
	</g>
	<g class="st2">
		<polygon class="st11" points="97.4,158.4 107.5,147.7 129.6,168.5 119.5,179 		"/>
		<path class="st12" d="M107.5,148.4l21.3,20.1l-9.3,9.9l-21.4-20L107.5,148.4 M107.5,147l-10.8,11.5l22.9,21.3l10.7-11.3L107.5,147
			L107.5,147z"/>
	</g>
	<g class="st2">
		<polygon class="st11" points="108.2,146.9 118.1,136.4 140.2,157.2 130.2,167.7 		"/>
		<path class="st12" d="M118.1,137.1l21.4,20.1l-9.2,9.8l-21.3-20.1L118.1,137.1 M118,135.7L107.5,147l22.8,21.5l10.6-11.2
			L118,135.7L118,135.7z"/>
	</g>
	<g class="st2">
		<polygon class="st11" points="118.7,135.7 128.7,125.2 150.9,145.9 140.9,156.5 		"/>
		<path class="st12" d="M128.7,125.9l21.5,20l-9.3,9.9l-21.4-20.1L128.7,125.9 M128.7,124.5L118,135.7l22.9,21.5l10.7-11.3
			L128.7,124.5L128.7,124.5z"/>
	</g>
	<g class="st2">
		<polygon class="st11" points="129.4,124.5 139.5,113.7 161.7,134.5 151.6,145.2 		"/>
		<path class="st12" d="M139.6,114.4l21.4,20.2l-9.4,9.9l-21.5-20L139.6,114.4 M139.5,112.9l-10.9,11.5l22.9,21.4l10.8-11.4
			L139.5,112.9L139.5,112.9z"/>
	</g>
	<g class="st2">
		<polygon class="st11" points="140.2,112.9 150.1,102.5 172.3,123.3 162.3,133.8 		"/>
		<path class="st12" d="M150.1,103.2l21.5,20.1l-9.2,9.8l-21.4-20.2L150.1,103.2 M150.1,101.8l-10.5,11.2l22.9,21.6l10.6-11.2
			L150.1,101.8L150.1,101.8z"/>
	</g>
	<g class="st2">
		<polygon class="st11" points="150.8,101.8 157.2,94.9 191.4,103.1 183.2,111.7 173,122.6 		"/>
		<path class="st12" d="M157.3,95.5l33.1,7.9l-7.5,7.9l-9.9,10.5l-21.5-20.1L157.3,95.5 M157,94.4l-7,7.4l22.9,21.5l10.6-11.2
			l8.7-9.2L157,94.4L157,94.4z"/>
	</g>
	<g class="st2">
		<polygon class="st11" points="184.3,112 192.5,103.4 226,111.5 206.4,132.6 		"/>
		<path class="st12" d="M192.6,104l32.4,7.8l-18.7,20.1L185,112L192.6,104 M192.3,102.9l-8.7,9.2l22.8,21.2l20.6-22.1L192.3,102.9
			L192.3,102.9z"/>
	</g>
	<g class="st2">
		<polygon class="st11" points="173.7,123.2 183.6,112.7 205.7,133.3 195.8,143.9 		"/>
		<path class="st12" d="M183.6,113.4l21.3,19.9l-9.2,9.8l-21.4-20L183.6,113.4 M183.6,112L173,123.3l22.9,21.3l10.5-11.3L183.6,112
			L183.6,112z"/>
	</g>
	<g class="st2">
		<polygon class="st11" points="163.1,134.5 173,124 195.1,144.6 185.1,155.3 		"/>
		<path class="st12" d="M173,124.7l21.4,20l-9.3,10l-21.3-20.2L173,124.7 M173,123.3l-10.6,11.2l22.8,21.6l10.7-11.5L173,123.3
			L173,123.3z"/>
	</g>
	<g class="st2">
		<polygon class="st11" points="152.3,145.9 162.4,135.2 184.4,156.1 174.6,166.7 		"/>
		<path class="st12" d="M162.4,135.9l21.3,20.2l-9.2,9.9L153,145.8L162.4,135.9 M162.4,134.5l-10.8,11.4l23,21.6l10.5-11.4
			L162.4,134.5L162.4,134.5z"/>
	</g>
	<g class="st2">
		<polygon class="st11" points="141.6,157.2 151.6,146.6 173.9,167.5 163.9,178.1 		"/>
		<path class="st12" d="M151.6,147.3l21.5,20.2l-9.3,9.9l-21.6-20.3L151.6,147.3 M151.6,145.9l-10.7,11.3l23.1,21.6l10.6-11.4
			L151.6,145.9L151.6,145.9z"/>
	</g>
	<g class="st2">
		<polygon class="st11" points="131,168.4 140.9,157.9 163.3,178.8 153.3,189.6 		"/>
		<path class="st12" d="M140.9,158.6l21.6,20.3l-9.3,10l-21.6-20.5L140.9,158.6 M140.9,157.2l-10.6,11.2l23.1,21.9l10.6-11.5
			L140.9,157.2L140.9,157.2z"/>
	</g>
	<g class="st2">
		<polygon class="st11" points="120.3,179.7 130.3,169.1 152.6,190.3 142.8,200.8 		"/>
		<path class="st12" d="M130.3,169.8l21.6,20.5l-9.1,9.8L121,179.7L130.3,169.8 M130.3,168.4l-10.7,11.3l23.3,21.8l10.5-11.2
			L130.3,168.4L130.3,168.4z"/>
	</g>
	<g class="st2">
		<polygon class="st11" points="109.6,191 119.6,180.4 142.2,201.5 132.1,212.2 		"/>
		<path class="st12" d="M119.6,181.2l21.8,20.4l-9.3,9.9L110.3,191L119.6,181.2 M119.6,179.7l-10.7,11.3l23.3,21.9l10.7-11.4
			L119.6,179.7L119.6,179.7z"/>
	</g>
	<g class="st2">
		<polygon class="st11" points="134.6,238.3 145.6,226.5 166.2,245.6 155.1,257.4 		"/>
		<path class="st12" d="M145.6,227.2l19.9,18.4l-10.4,11.1l-19.9-18.4L145.6,227.2 M145.5,225.8L134,238.2c0,0.1,0,0.2,0,0.3
			l21.2,19.6l11.8-12.5L145.5,225.8L145.5,225.8z"/>
	</g>
	<g class="st2">
		<polygon class="st11" points="146.3,225.8 157.3,214 177.9,233.2 166.9,244.8 		"/>
		<path class="st12" d="M157.3,214.7l19.9,18.5l-10.3,10.9L147,225.8L157.3,214.7 M157.2,213.3l-11.7,12.5l21.4,19.7l11.7-12.4
			L157.2,213.3L157.2,213.3z"/>
	</g>
	<g class="st2">
		<polygon class="st11" points="157.9,213.3 169,201.5 189.7,220.7 178.6,232.5 		"/>
		<path class="st12" d="M169,202.2l20,18.6l-10.4,11l-19.9-18.5L169,202.2 M168.9,200.8l-11.7,12.5l21.4,19.9l11.8-12.5L168.9,200.8
			L168.9,200.8z"/>
	</g>
	<g class="st2">
		<polygon class="st11" points="169.6,200.7 180.6,188.9 201.5,208.3 190.4,220 		"/>
		<path class="st12" d="M180.7,189.6l20.1,18.7l-10.4,11l-20-18.6L180.7,189.6 M180.6,188.2l-11.7,12.5l21.5,19.9l11.8-12.5
			L180.6,188.2L180.6,188.2z"/>
	</g>
	<g class="st2">
		<polygon class="st11" points="181.3,188.2 192.3,176.5 213.2,195.8 210.8,198.4 202.2,207.5 		"/>
		<path class="st12" d="M192.3,177.2l20.2,18.7l-2,2.2l-8.3,8.8L182,188.2L192.3,177.2 M192.2,175.8l-11.6,12.5l21.6,20l9-9.6
			l2.7-2.9L192.2,175.8L192.2,175.8z"/>
	</g>
	<g class="st2">
		<polygon class="st11" points="192.9,175.7 204,163.9 224.9,183.5 213.8,195.1 		"/>
		<path class="st12" d="M204.1,164.6l20.1,18.9l-10.3,10.9l-20.2-18.7L204.1,164.6 M204,163.2l-11.8,12.6l21.6,20l11.7-12.3
			L204,163.2L204,163.2z"/>
	</g>
	<g class="st2">
		<polygon class="st11" points="204.7,163.1 215.6,151.4 236.6,171.1 227.6,180.6 225.5,182.8 		"/>
		<path class="st12" d="M215.7,152.1l20.2,19l-8.7,9.2l-1.7,1.8l-20.1-19L215.7,152.1 M215.6,150.7L204,163.2l21.6,20.3l2.4-2.5
			l9.4-9.9L215.6,150.7L215.6,150.7z"/>
	</g>
	<g class="st2">
		<polygon class="st11" points="216.3,150.7 227.3,139 248.4,158.7 241.6,165.8 237.3,170.3 		"/>
		<path class="st12" d="M227.3,139.7l20.4,19l-6.4,6.8l-4,4.2l-20.3-19L227.3,139.7 M227.2,138.2l-11.6,12.5l21.7,20.3l4.7-4.9
			l7.1-7.5L227.2,138.2L227.2,138.2z"/>
	</g>
	<g class="st2">
		
			<rect x="253.5" y="164.7" transform="matrix(0.7337 -0.6795 0.6795 0.7337 -45.3156 228.2782)" class="st11" width="30" height="14.4"/>
		<path class="st12" d="M274.6,157.2l9.1,9.8l-21.3,19.7l-9.1-9.8L274.6,157.2 M274.7,155.7l-22.8,21.1l10.5,11.3l22.8-21.1
			L274.7,155.7L274.7,155.7z"/>
	</g>
	<g class="st2">
		<polygon class="st11" points="228.6,180.9 237.7,171.4 242,166.9 251.6,177.2 261.7,188.1 248.7,200.2 		"/>
		<path class="st12" d="M242,167.6l9.2,9.9l9.8,10.6l-12.3,11.4l-19.4-18.6l8.7-9.2L242,167.6 M242,166.1l-4.7,4.9l-9.4,9.9
			l20.8,19.9l13.7-12.8l-10.5-11.3L242,166.1L242,166.1z"/>
	</g>
	<g class="st2">
		<path class="st11" d="M267.1,224.7c1-0.6,1.9-1.4,2.8-2.3c4.5-4.7,5.6-11.8,2.6-17.6l2.5-2.3l10.4,11.3l10.5,11.3l6.1,6.7
			l-13.2,13.8L267.1,224.7z"/>
		<path class="st12" d="M274.9,203.2l10.1,11l10.5,11.3l5.8,6.3l-12.5,13.1l-21-20.2c0.8-0.6,1.6-1.2,2.3-2
			c4.6-4.7,5.7-11.9,2.9-17.8L274.9,203.2 M275,201.8l-3.1,2.9c3,5.5,2.2,12.6-2.4,17.3c-1,1-2.1,1.8-3.2,2.5l22.6,21.7l13.9-14.5
			l-6.4-7l-10.5-11.3L275,201.8L275,201.8z"/>
	</g>
	<g class="st2">
		<polygon class="st11" points="275.6,201.9 297.6,181.4 307.6,192.3 285.7,212.8 		"/>
		<path class="st12" d="M297.6,182.2l9.3,10.1l-21.2,19.8l-9.4-10.1L297.6,182.2 M297.6,180.7l-22.7,21.2l10.8,11.6l22.6-21.2
			L297.6,180.7L297.6,180.7z"/>
	</g>
	<g class="st2">
		<polygon class="st11" points="286.4,213.5 308.3,193.1 318.2,203.8 296.3,224.1 		"/>
		<path class="st12" d="M308.3,193.8l9.3,10l-21.2,19.7l-9.2-9.9L308.3,193.8 M308.3,192.4l-22.6,21.2l10.5,11.3l22.7-21
			L308.3,192.4L308.3,192.4z"/>
	</g>
	<g class="st2">
		<polygon class="st11" points="303.1,231.5 297,224.9 318.9,204.5 328.9,215.2 306.8,235.5 		"/>
		<path class="st12" d="M318.9,205.2l9.3,9.9l-21.3,19.7l-3.3-3.7l-5.8-6.3L318.9,205.2 M318.9,203.8l-22.7,21l6.5,7l4,4.4
			l22.8-21.1L318.9,203.8L318.9,203.8z"/>
	</g>
	<g class="st2">
		<polygon class="st11" points="314.8,244.1 307.5,236.3 329.5,215.9 339.4,226.6 317.3,246.9 		"/>
		<path class="st12" d="M329.5,216.6l9.2,9.9l-21.3,19.7l-2.2-2.4l-7-7.5L329.5,216.6 M329.6,215.2l-22.8,21.1l7.7,8.2l2.9,3.2
			l22.8-21.1L329.6,215.2L329.6,215.2z"/>
	</g>
	<g class="st2">
		<polygon class="st11" points="318,247.7 340.1,227.3 350,237.9 327.9,258.3 		"/>
		<path class="st12" d="M340.1,228l9.2,9.9l-21.3,19.7l-9.2-9.9L340.1,228 M340.1,226.6l-22.8,21.1l10.5,11.4l22.8-21.1L340.1,226.6
			L340.1,226.6z"/>
	</g>
	<g class="st2">
		<polygon class="st11" points="330.2,260.7 328.6,259 350.6,238.7 360.5,249.3 338.5,269.7 		"/>
		<path class="st12" d="M350.6,239.4l9.2,9.9L338.6,269l-8-8.6l-1.2-1.3L350.6,239.4 M350.7,238L327.8,259l1.9,2l8.7,9.3l22.7-21
			L350.7,238L350.7,238z"/>
	</g>
	<g class="st2">
		<polygon class="st11" points="341.9,273.2 339.2,270.4 361.2,250.1 371,260.7 349.2,281.1 		"/>
		<path class="st12" d="M361.2,250.8l9.2,9.9l-21.2,19.7l-7-7.5l-2.3-2.5L361.2,250.8 M361.2,249.4l-22.7,21l3,3.2l7.6,8.3
			l22.6-21.1L361.2,249.4L361.2,249.4z"/>
	</g>
	<g class="st2">
		<path class="st11" d="M352.4,284.7l-2.6-2.8l22-20.4l10.2,11.1c-4.4,9-10.5,17.1-18.2,24.3L352.4,284.7z"/>
		<path class="st12" d="M371.7,262.2l9.6,10.5c-4.3,8.6-10.2,16.6-17.6,23.6l-10.9-11.8l-2.3-2.5L371.7,262.2 M371.8,260.7
			l-22.7,21.1l3,3.2l11.6,12.5c7-6.4,13.8-14.7,18.9-25.1L371.8,260.7L371.8,260.7z"/>
	</g>
	<g class="st2">
		<path class="st11" d="M312.6,287.6c2-3.4,2.6-7.5,1.7-11.4l15.5-14.4l8.4,9l2.6,2.8l-22.1,20.5L312.6,287.6z"/>
		<path class="st12" d="M329.7,262.5l8,8.7l2.3,2.4l-21.4,19.8l-5.5-5.8c1.9-3.3,2.4-7.3,1.6-11.1L329.7,262.5 M329.8,261.1l-16,15
			c1,3.9,0.5,8.1-1.8,11.6l6.6,7.1l22.9-21.2l-3-3.1L329.8,261.1L329.8,261.1z"/>
	</g>
	<g class="st2">
		<path class="st11" d="M273.6,318.6l-8.9-9.7l22-20.4l1.1,1.2c0.3,0.4,0.7,0.8,1.1,1.1l7.6,8.3l-22,20.5L273.6,318.6z"/>
		<path class="st12" d="M286.7,289.2l0.7,0.8l0,0c0.3,0.4,0.7,0.8,1.1,1.2l7.3,7.9l-21.2,19.8l-0.5-0.6l-8.6-9.4L286.7,289.2
			 M286.7,287.8L264,308.9l9.2,10.1l1.2,1.3l22.7-21.2l-7.9-8.6c-0.4-0.4-0.8-0.8-1.1-1.1c-0.1-0.1-0.1-0.1-0.1-0.1L286.7,287.8
			L286.7,287.8z"/>
	</g>
	<g class="st2">
		<polygon class="st11" points="284.2,330.1 275.2,320.3 297.1,299.8 307.2,310.5 285,331 		"/>
		<path class="st12" d="M297.1,300.5l9.3,10l-21.4,19.7l-0.5-0.5l-8.7-9.4L297.1,300.5 M297.2,299.1l-22.6,21.2l9.3,10.2l1.1,1.2
			l22.9-21.1L297.2,299.1L297.2,299.1z"/>
	</g>
	<g class="st2">
		<polygon class="st11" points="192.4,82.9 199.6,53.1 231.2,60.9 207.1,86.6 		"/>
		<path class="st12" d="M200,53.7l30.2,7.5L206.9,86L193,82.6L200,53.7 M199.3,52.5l-7.5,30.8l15.4,3.8l24.9-26.5L199.3,52.5
			L199.3,52.5z"/>
	</g>
	<g class="st2">
		<polygon class="st11" points="312.2,168.2 323,158.3 343.4,180.4 332.7,190.3 		"/>
		<path class="st12" d="M322.9,159l19.7,21.4l-9.9,9.2l-19.8-21.3L322.9,159 M323,157.6l-11.5,10.6l21.2,22.8l11.4-10.5L323,157.6
			L323,157.6z"/>
	</g>
	<g class="st2">
		<polygon class="st11" points="323.7,157.6 334.4,147.8 354.8,169.9 344.1,179.7 		"/>
		<path class="st12" d="M334.3,148.5l19.7,21.3l-9.9,9.2l-19.7-21.4L334.3,148.5 M334.4,147.1L323,157.6l21.1,22.9l11.4-10.5
			L334.4,147.1L334.4,147.1z"/>
	</g>
	<g class="st2">
		<polygon class="st11" points="335.1,147.1 345.7,137.2 366.2,159.3 355.5,169.2 		"/>
		<path class="st12" d="M345.7,137.9l19.7,21.4l-9.9,9.2l-19.7-21.3L345.7,137.9 M345.8,136.5l-11.4,10.6l21.1,22.8l11.4-10.5
			L345.8,136.5L345.8,136.5z"/>
	</g>
	<g class="st2">
		<polygon class="st11" points="346.5,136.5 357.2,126.6 377.6,148.7 366.9,158.6 		"/>
		<path class="st12" d="M357.2,127.4l19.7,21.3l-10,9.3l-19.7-21.4L357.2,127.4 M357.2,125.9l-11.5,10.5l21.1,22.9l11.5-10.6
			L357.2,125.9L357.2,125.9z"/>
	</g>
	<g class="st2">
		<polygon class="st11" points="357.9,126 368.7,116 388.9,138.2 384.8,142 378.4,148 		"/>
		<path class="st12" d="M368.6,116.7l19.6,21.4l-3.8,3.5l-6.1,5.7L358.6,126L368.6,116.7 M368.7,115.3l-11.5,10.6l21.1,22.8l6.8-6.3
			l4.5-4.1L368.7,115.3L368.7,115.3z"/>
	</g>
	<g class="st2">
		<polygon class="st11" points="369.4,115.3 380,105.5 400.4,127.6 389.7,137.5 		"/>
		<path class="st12" d="M380,106.2l19.7,21.4l-10,9.3l-19.6-21.5L380,106.2 M380,104.8l-11.3,10.5l20.9,22.9l11.5-10.6L380,104.8
			L380,104.8z"/>
	</g>
	<g class="st2">
		
			<rect x="388.6" y="94.8" transform="matrix(0.7351 -0.6779 0.6779 0.7351 30.7917 298.5198)" class="st11" width="17.7" height="30.1"/>
		<path class="st12" d="M393.7,93.5l19.7,21.4l-12.3,11.3l-19.7-21.4L393.7,93.5 M393.8,92.1L380,104.8l21.1,22.9l13.8-12.7
			L393.8,92.1L393.8,92.1z"/>
	</g>
	<g class="st2">
		<polygon class="st11" points="394.5,92.1 407.3,80.2 427.8,102.2 414.9,114.2 		"/>
		<path class="st12" d="M407.3,80.9l19.8,21.3l-12.2,11.3l-19.7-21.4L407.3,80.9 M407.4,79.5l-13.6,12.6l21.1,22.9l13.7-12.7
			L407.4,79.5L407.4,79.5z"/>
	</g>
	<g class="st2">
		<polygon class="st11" points="333.4,191 355.4,170.6 367.5,183.5 369,185.1 346.9,205.6 		"/>
		<path class="st12" d="M355.4,171.3l11.7,12.6l1.2,1.3l-21.4,19.7L334.1,191l10.7-9.9L355.4,171.3 M355.5,169.9l-11.4,10.5
			L332.7,191l14.1,15.3l22.9-21.1l-1.8-2L355.5,169.9L355.5,169.9z"/>
	</g>
	<g class="st2">
		<polygon class="st11" points="347.5,206.3 369.7,185.9 379.5,196.5 357.5,217 		"/>
		<path class="st12" d="M369.6,186.6l9.2,9.9l-21.3,19.9l-9.3-10L369.6,186.6 M369.7,185.2l-22.9,21.1l10.6,11.5l22.8-21.2
			L369.7,185.2L369.7,185.2z"/>
	</g>
	<g class="st2">
		<polygon class="st11" points="358.2,217.7 380.2,197.2 390.2,207.9 368.1,228.4 		"/>
		<path class="st12" d="M380.2,197.9l9.3,10l-21.3,19.8l-9.3-9.9L380.2,197.9 M380.2,196.5l-22.8,21.2l10.6,11.4l22.8-21.2
			L380.2,196.5L380.2,196.5z"/>
	</g>
	<g class="st2">
		<polygon class="st11" points="368.8,229.1 390.8,208.6 400.7,219.3 378.6,239.8 		"/>
		<path class="st12" d="M390.8,209.4l9.2,9.9l-21.4,19.8l-9.1-9.9L390.8,209.4 M390.9,207.9l-22.8,21.2l10.5,11.4l22.9-21.2
			L390.9,207.9L390.9,207.9z"/>
	</g>
	<g class="st2">
		<path class="st11" d="M379.3,240.4l22-20.4l11.7,12.6c-12.8,9.8-19.7,19-21.3,21.3L379.3,240.4z"/>
		<path class="st12" d="M401.3,220.7l11,11.8c-11.9,9.2-18.5,17.7-20.6,20.5L380,240.5L401.3,220.7 M401.3,219.3l-22.8,21.1
			l13.2,14.3c0,0,7-10.5,22-22L401.3,219.3L401.3,219.3z"/>
	</g>
	<g class="st2">
		<path class="st11" d="M402.1,219.4l22-20.4l16.3,17.5c-2.1,1.6-4.4,2.7-7.3,4.1c-4.4,2.1-10.4,4.9-19.3,11.5L402.1,219.4z"/>
		<path class="st12" d="M424.1,199.6l15.5,16.7c-2,1.4-4.1,2.4-6.8,3.7c-4.4,2-10.3,4.8-19,11.3l-11.1-12L424.1,199.6 M424.2,198.2
			l-22.8,21.1l12.4,13.4c15.1-11.5,21.7-11.5,27.4-16.2L424.2,198.2L424.2,198.2z"/>
	</g>
	<g class="st2">
		<polygon class="st11" points="391.6,208 413.5,187.5 423.5,198.2 401.4,218.6 		"/>
		<path class="st12" d="M413.5,188.2l9.3,10l-21.3,19.7l-9.2-9.9L413.5,188.2 M413.6,186.8l-22.7,21.2l10.5,11.4l22.8-21.1
			L413.6,186.8L413.6,186.8z"/>
	</g>
	<g class="st2">
		<polygon class="st11" points="380.9,196.5 402.9,176 412.9,186.7 390.9,207.2 		"/>
		<path class="st12" d="M402.9,176.7l9.3,10l-21.2,19.8l-9.3-10L402.9,176.7 M402.9,175.3l-22.7,21.2l10.6,11.5l22.7-21.2
			L402.9,175.3L402.9,175.3z"/>
	</g>
	<g class="st2">
		<path class="st11" d="M461,164.2l-4.4-4.8l22.1-20.6l11.3,12.3c-4.9,4.3-13.6,14.5-19.3,23.6L461,164.2z"/>
		<path class="st12" d="M478.7,139.6l10.6,11.6c-4.9,4.4-13.1,14-18.7,22.8l-9.3-10.1l-4.1-4.4L478.7,139.6 M478.7,138.2l-22.9,21.2
			l4.7,5.1l10.2,11.1c6-9.8,15.2-20.4,19.9-24.4L478.7,138.2L478.7,138.2z"/>
	</g>
	<g class="st2">
		<path class="st11" d="M438.6,185.7l21.9-20.5l9.6,10.4c-2.3,3.7-4,7.1-5,9.9c-3.2,9.3-8.6,16.1-10,17.8L438.6,185.7z"/>
		<path class="st12" d="M460.5,165.9l9,9.8c-2.2,3.7-3.9,6.9-4.9,9.7c-3,8.5-7.8,15-9.6,17.2l-15.7-16.9L460.5,165.9 M460.6,164.5
			l-22.6,21.2l17.2,18.5c0,0,6.6-7.5,10.5-18.4c1.1-3,2.9-6.5,5.2-10.2L460.6,164.5L460.6,164.5z"/>
	</g>
	<g class="st2">
		<polygon class="st11" points="428,174.2 450,153.8 455.5,159.8 459.9,164.5 438,185 		"/>
		<path class="st12" d="M450,154.5l5.2,5.6l4.1,4.4l-21.2,19.8l-9.3-10.1L450,154.5 M450,153.1l-22.7,21.1l10.7,11.5l22.6-21.2
			l-4.7-5.1L450,153.1L450,153.1z"/>
	</g>
	<g class="st2">
		<polygon class="st11" points="417.4,162.7 439.5,142.4 445,148.3 449.3,153 427.3,173.5 		"/>
		<path class="st12" d="M439.5,143.1l5.1,5.5l4,4.4l-21.2,19.7l-9.3-10L439.5,143.1 M439.5,141.7l-22.9,21l10.6,11.5l22.7-21.1
			l-4.7-5.1L439.5,141.7L439.5,141.7z"/>
	</g>
	<g class="st2">
		<path class="st11" d="M439.8,141.3l-4.4-4.8l19.5-18.2c0.6-0.4,1.3-1,2-1.7c0.2-0.2,0.5-0.5,0.7-0.8l9.9,10.8l-22.1,20.6
			L439.8,141.3z"/>
		<path class="st12" d="M457.7,116.6l9.1,10l-21.4,19.9l-5.2-5.5l-4.1-4.5l19.1-17.8c0.6-0.4,1.3-1,2.1-1.8
			C457.4,116.9,457.5,116.8,457.7,116.6 M457.7,115.2l-0.4,0.4c-0.2,0.3-0.5,0.5-0.7,0.8c-0.6,0.6-1.3,1.2-2,1.7l-19.9,18.5l4.7,5.2
			l5.9,6.3l22.9-21.2L457.7,115.2L457.7,115.2z"/>
	</g>
	<g class="st2">
		<polygon class="st11" points="450.4,152.7 446.1,148 468.2,127.4 478,138.1 455.9,158.7 		"/>
		<path class="st12" d="M468.1,128.1l9.2,10L455.9,158l-5.2-5.6l-4-4.4L468.1,128.1 M468.2,126.7l-22.9,21.2l4.7,5.1l5.9,6.3
			l22.9-21.2L468.2,126.7L468.2,126.7z"/>
	</g>
	<g class="st2">
		<polygon class="st11" points="463.7,93.7 454.7,92.4 456.8,80.8 473.2,81.1 489.7,78.4 493.6,78.8 470.1,100.5 		"/>
		<path class="st12" d="M489.7,78.9l2.7,0.3l-22.4,20.7l-5.9-6.4l-0.2-0.3l-0.4,0l-8.3-1.2l1.9-10.7l16,0.3l0.1,0l0.1,0L489.7,78.9
			 M489.7,77.9l-16.5,2.8l-16.8-0.3l-2.2,12.5l9.3,1.3l6.6,7.1l24.8-22.9h-0.4L489.7,77.9L489.7,77.9z"/>
	</g>
	<g class="st2">
		<polygon class="st11" points="470.7,101.3 495,78.8 498.7,78.8 503.3,78.4 509.7,85.3 498.7,95.4 480.7,112 		"/>
		<path class="st12" d="M503.1,78.9l5.9,6.3L498.3,95l-17.6,16.3l-9.3-10l23.7-22h3.5h0l0,0L503.1,78.9 M503.5,77.9l-4.8,0.5h-3.8
			h-0.1L470,101.3l10.6,11.5l18.3-17l11.4-10.5L503.5,77.9L503.5,77.9z"/>
	</g>
	<g class="st2">
		<polygon class="st11" points="481.4,112.7 499,96.5 511.8,110.3 494.1,126.6 		"/>
		<path class="st12" d="M498.9,97.2l12.2,13.1l-16.9,15.6l-12.1-13.1L498.9,97.2 M499,95.8l-18.3,17l13.5,14.6l18.4-17L499,95.8
			L499,95.8z"/>
	</g>
	<g class="st2">
		<path class="st11" d="M494.7,127.3l17.7-16.3l14.8,15.8c-3.2,2.2-6.1,3.7-7.9,4.3c-3.5,1.1-12,6.6-13.8,7.8L494.7,127.3z"/>
		<path class="st12" d="M512.4,111.8l14,15c-3,2-5.6,3.3-7.3,3.9c-3.4,1.1-11.2,6-13.6,7.6l-10.1-10.9L512.4,111.8 M512.4,110.4
			l-18.4,17l11.3,12.2c0,0,10.2-6.7,14.1-7.9c2.1-0.7,5.3-2.4,8.6-4.7L512.4,110.4L512.4,110.4z"/>
	</g>
	<g class="st2">
		<path class="st11" d="M512.9,110.1l-13.2-14.3l10.7-9.8l28.2,30.4c-1.9,2.2-3.1,3.8-3.1,3.8c-2.1,2-4.7,4.2-7.5,6.1L512.9,110.1z"
			/>
		<path class="st12" d="M510.3,86.7l27.6,29.7c-1.5,1.8-2.6,3.1-2.8,3.4c-2,1.9-4.5,4-7.1,5.8l-14.8-15.9l-12.8-13.9L510.3,86.7
			 M510.4,85.3L499,95.8l13.5,14.7L528,127c2.8-2,5.7-4.3,7.9-6.5c0,0,1.3-1.7,3.4-4.1L510.4,85.3L510.4,85.3z"/>
	</g>
	<g class="st2">
		<path class="st11" d="M417.4,161.4c0.3-4.5-1.4-8.8-4.6-12c-1.4-1.4-3-2.4-5-3.2l19.1-17.7l7.6,8.3l4.4,4.8L417.4,161.4z"/>
		<path class="st12" d="M426.8,129.3l7.3,7.9l4.1,4.5l-20.2,18.6c0-4.2-1.7-8.2-4.8-11.2c-1.2-1.2-2.7-2.3-4.4-3L426.8,129.3
			 M426.9,127.9l-20,18.6c2.1,0.7,4,1.8,5.6,3.4c3.6,3.5,5,8.3,4.4,12.9l22.8-21l-4.7-5.2L426.9,127.9L426.9,127.9z"/>
	</g>
	<g class="st2">
		<path class="st11" d="M385.9,142.4l4.1-3.8l11.5-10.6l13.4-12.3l11.2,12.2l-19.4,18c-1.5-0.5-3.1-0.7-4.6-0.7
			c-3.7,0-7.3,1.3-10,3.8L385.9,142.4z"/>
		<path class="st12" d="M414.9,116.4l10.5,11.4l-18.9,17.5c-1.5-0.4-3-0.6-4.5-0.6c-3.7,0-7.2,1.3-10,3.6l-5.4-5.8l3.8-3.5
			l11.5-10.6L414.9,116.4 M414.9,114.9l-13.8,12.7l-11.5,10.6l-4.5,4.1l6.7,7.3c2.8-2.7,6.4-4,10.1-4c1.6,0,3.2,0.3,4.7,0.8l20-18.6
			L414.9,114.9L414.9,114.9z"/>
	</g>
	<g class="st2">
		<path class="st11" d="M427.1,127.5l-11.6-12.6l13.3-12.3l3-2.7c-2.6,5.7-1.4,12.7,3.3,17.3c2.9,2.8,6.7,4.3,10.7,4.3
			c1.9,0,3.7-0.3,5.4-1l-16.5,15.3L427.1,127.5z"/>
		<path class="st12" d="M430.6,101.6c-1.6,5.5-0.2,11.7,4.2,15.9c3,2.9,6.9,4.4,11.1,4.4c1.2,0,2.3-0.1,3.5-0.4l-14.5,13.5l-7.3-7.9
			l-11.2-12.3l13-12L430.6,101.6 M434,97.1l-5.5,5.1l-13.7,12.7l11.9,13l7.9,8.6l19.8-18.4c-2.6,1.9-5.6,2.8-8.7,2.8
			c-3.7,0-7.4-1.4-10.4-4.1C430.1,111.4,429.5,102.9,434,97.1L434,97.1z"/>
	</g>
	<g class="st2">
		<path class="st11" d="M314,275.1c-0.8-2.5-2.2-4.7-4-6.3c-2.4-2.3-5.5-3.7-8.7-4.1l-0.1-7.4l13.2-12l2.5,2.8l10.5,11.4l1.6,1.6
			L314,275.1z"/>
		<path class="st12" d="M314.4,245.9l2.2,2.4l10.6,11.4l1.2,1.3l-14.2,13.2c-0.9-2.3-2.2-4.3-3.8-5.8c-2.4-2.2-5.4-3.7-8.6-4.2
			l-0.1-6.8L314.4,245.9 M314.5,244.5L300.8,257l0.1,8.1c3.2,0.3,6.3,1.7,8.9,4.1c2.1,1.9,3.4,4.4,4.1,6.9l16-15l-1.9-2l-10.5-11.4
			L314.5,244.5L314.5,244.5z"/>
	</g>
	<g class="st2">
		<polygon class="st11" points="319.3,294.8 341.5,274.3 348.8,282.2 351.4,285 339.9,295.8 329.4,305.5 		"/>
		<path class="st12" d="M341.4,275l7,7.5l2.3,2.5l-11.1,10.4l-10.2,9.4l-9.3-10L341.4,275 M341.5,273.6l-22.9,21.2l10.7,11.5
			l10.9-10.1l11.8-11.1l-3-3.2L341.5,273.6L341.5,273.6z"/>
	</g>
	<g class="st2">
		<path class="st11" d="M330,306.2l10.6-9.8l11.5-10.7l10.9,11.8c-11.6,10.7-23.1,16.2-25.2,17.2L330,306.2z"/>
		<path class="st12" d="M352.1,286.5l10.3,11.1c-10.9,9.9-21.6,15.3-24.3,16.6l-7.2-7.8l10.2-9.5L352.1,286.5 M352.1,285.1l-11.8,11
			l-10.9,10.2l8.4,9.1c0,0,12.9-5.6,26-17.7L352.1,285.1L352.1,285.1z"/>
	</g>
	<g class="st2">
		<path class="st11" d="M654.8,167.8c-0.1-0.1-0.2-0.2-0.3-0.4c-2.9-2.8-6.7-4.4-10.7-4.4c-1.7,0-3.3,0.3-4.9,0.8l-2.6-2.8l22-20.5
			l12,12.9L654.8,167.8C654.8,167.9,654.8,167.8,654.8,167.8z"/>
		<path class="st12" d="M658.4,141.3l11.3,12.2l-14.8,13.6c0,0,0,0,0,0l0-0.1l-0.1-0.1c-3-2.9-6.9-4.4-11-4.4
			c-1.6,0-3.2,0.2-4.7,0.7l-2-2.2L658.4,141.3 M658.4,139.9l-22.8,21.2l3.1,3.4c1.6-0.6,3.3-0.9,5-0.9c3.7,0,7.4,1.4,10.3,4.2
			c0.2,0.3,0.5,0.5,0.8,0.8l16.3-15L658.4,139.9L658.4,139.9z"/>
	</g>
	<g class="st2">
		<path class="st11" d="M658.3,182.8c1.5-4.9,0.4-10.3-2.9-14.2l15.6-14.3l2,2.2l11.7,12.6l-19.7,20.3L658.3,182.8z"/>
		<path class="st12" d="M671,155l1.7,1.8l11.4,12.3l-19,19.6l-6.2-6.1c1.4-4.9,0.4-10.1-2.7-14L671,155 M671,153.6l-16.3,15
			c3.6,4,4.6,9.5,3,14.4l7.3,7.2l20.3-21l-12-13L671,153.6L671,153.6z"/>
	</g>
	<g class="st2">
		<polygon class="st11" points="625.8,149.8 647.8,129.3 657.7,139.9 635.7,160.5 		"/>
		<path class="st12" d="M647.8,130l9.2,9.8l-21.3,19.9l-9.2-9.9L647.8,130 M647.9,128.6l-22.8,21.2l10.5,11.4l22.8-21.2L647.9,128.6
			L647.9,128.6z"/>
	</g>
	<g class="st2">
		<path class="st11" d="M604.7,127.2c0.3-1.5,2.2-9.1,10.5-9.2l27.1,5.3l5,5.3l-22.1,20.5L604.7,127.2z"/>
		<path class="st12" d="M615.1,118.5l26.9,5.3l4.5,4.8l-21.4,19.8L605.2,127C605.6,125.2,607.6,118.6,615.1,118.5 M615.2,117.5
			c-9.6,0.1-11.1,9.9-11.1,9.9l20.9,22.5l22.9-21.2l-5.4-5.8L615.2,117.5L615.2,117.5z"/>
	</g>
	<g class="st2">
		<path class="st11" d="M658.7,139.7l-10.5-11.3l-4.4-4.7l51.8,10.1c0.3,0.1,0.6,0.1,0.8,0.2c0,0,0,0,0.1,0l-23.1,21.5L658.7,139.7z
			"/>
		<path class="st12" d="M645.3,124.5l50.2,9.8l-22,20.5l-14.4-15.5L648.6,128L645.3,124.5 M642.4,122.9l5.4,5.8l10.5,11.3l15.1,16.2
			l24.1-22.5c-0.6-0.2-1.1-0.2-1.8-0.4L642.4,122.9L642.4,122.9z"/>
	</g>
	<g class="st2">
		<path class="st11" d="M597.2,232c-0.9-1.8-1.9-3.3-3.1-4.4c-2.7-2.7-6.5-4.2-10.4-4.3l-2-2.1l22-20.5l12.5,13.5L597.2,232z"/>
		<path class="st12" d="M603.8,201.4l11.8,12.7l-18.2,17c-0.8-1.6-1.8-2.9-2.9-3.9c-2.8-2.7-6.6-4.3-10.5-4.4l-1.5-1.6L603.8,201.4
			 M603.8,200l-22.8,21.2l2.4,2.7c3.7,0,7.4,1.4,10.2,4.1c1.5,1.4,2.5,3.1,3.3,4.9l19.9-18.6L603.8,200L603.8,200z"/>
	</g>
	<g class="st2">
		<polygon class="st11" points="571.2,209.9 593.3,189.3 603.1,200 581.2,220.5 		"/>
		<path class="st12" d="M593.2,190l9.2,9.9l-21.2,19.9l-9.3-9.9L593.2,190 M593.3,188.6l-22.8,21.2l10.6,11.4l22.7-21.2L593.3,188.6
			L593.3,188.6z"/>
	</g>
	<g class="st2">
		<polygon class="st11" points="560.6,198.4 582.7,177.9 592.6,188.6 570.6,209.1 		"/>
		<path class="st12" d="M582.7,178.6l9.2,10l-21.3,19.9l-9.3-10L582.7,178.6 M582.8,177.1l-22.9,21.2l10.6,11.5l22.8-21.2
			L582.8,177.1L582.8,177.1z"/>
	</g>
	<g class="st2">
		<path class="st11" d="M546.7,183.3c8.8-4.1,17.4-10.5,24.5-18l10.9,11.8l-22.1,20.6L546.7,183.3z"/>
		<path class="st12" d="M571.1,166.1l10.2,11L560,197l-12.5-13.5C556,179.4,564.3,173.3,571.1,166.1 M571.1,164.6
			c-6.2,6.7-14.9,13.8-25.3,18.6l14.1,15.2l22.9-21.2L571.1,164.6L571.1,164.6z"/>
	</g>
	<g class="st2">
		<path class="st11" d="M571.8,164.6c4.7-5.1,7.3-9.5,8.5-11.8c3.5-6.8,8.9-11,10.3-12l14.1,15.2l-22,20.4L571.8,164.6z"/>
		<path class="st12" d="M590.6,141.5L604,156l-21.2,19.7l-10.3-11.1c4.5-5,7.1-9.3,8.2-11.5C584,146.8,588.8,142.8,590.6,141.5
			 M590.7,140.2c0,0-6.6,4.4-10.9,12.5c-1.7,3.2-4.6,7.6-8.7,12l11.6,12.5l22.7-21.1L590.7,140.2L590.7,140.2z"/>
	</g>
	<g class="st2">
		<polygon class="st11" points="583.5,177.2 605.4,156.8 615.4,167.4 593.3,187.9 		"/>
		<path class="st12" d="M605.4,157.5l9.3,9.9l-21.3,19.8l-9.2-10L605.4,157.5 M605.5,156.1l-22.7,21.1l10.5,11.5l22.8-21.2
			L605.5,156.1L605.5,156.1z"/>
	</g>
	<g class="st2">
		<polygon class="st11" points="594,188.6 616,168.1 625.9,178.8 603.9,199.3 		"/>
		<path class="st12" d="M616,168.9l9.2,9.9l-21.3,19.8l-9.2-9.9L616,168.9 M616.1,167.4l-22.8,21.2l10.5,11.4l22.8-21.2L616.1,167.4
			L616.1,167.4z"/>
	</g>
	<g class="st2">
		<path class="st11" d="M604.6,200l22-20.6l2.2,2.3c0.7,3,2.1,5.6,4.3,7.7c1.7,1.7,3.7,2.9,6.1,3.6L617,213.5L604.6,200z"/>
		<path class="st12" d="M626.6,180.2l1.7,1.8c0.7,3,2.2,5.6,4.4,7.8c1.5,1.5,3.4,2.7,5.5,3.5L617,212.8L605.3,200L626.6,180.2
			 M626.6,178.7L603.8,200l13.1,14.2l23.2-21.4c-2.4-0.6-4.8-1.8-6.7-3.7c-2.2-2.1-3.6-4.7-4.2-7.6L626.6,178.7L626.6,178.7z"/>
	</g>
	<g class="st2">
		<polygon class="st11" points="517.9,271.1 539.9,250.7 544.2,255.3 549.9,261.3 527.7,281.6 		"/>
		<path class="st12" d="M539.9,251.4l3.9,4.2l5.3,5.7l-21.4,19.6l-9.1-9.8L539.9,251.4 M540,250l-22.8,21.1l10.5,11.2
			c0.1,0,0,0,0.1,0l22.9-20.9l-6-6.4L540,250L540,250z"/>
	</g>
	<g class="st2">
		<polygon class="st11" points="507.3,259.7 529.2,239.2 533.6,243.8 539.3,249.9 517.2,270.4 		"/>
		<path class="st12" d="M529.2,239.9l4,4.2l5.4,5.8l-21.3,19.7l-9.2-9.9L529.2,239.9 M529.3,238.5l-22.6,21.2l10.5,11.4L540,250
			l-6-6.5L529.3,238.5L529.3,238.5z"/>
	</g>
	<g class="st2">
		<path class="st11" d="M495.1,246.5c8.8-9.5,14.5-19.2,17.2-24c0.2-0.3,0.4-0.6,0.5-0.9l10.1,10.9l5.6,6L506.7,259L495.1,246.5z"/>
		<path class="st12" d="M512.9,222.4l9.6,10.4l5.3,5.6l-21.2,19.8l-10.9-11.8c8.7-9.4,14.3-19,17-23.7
			C512.8,222.6,512.9,222.5,512.9,222.4 M512.8,220.8c-2.1,3.6-8.3,15-18.3,25.7l12.2,13.2l22.6-21.2l-6-6.3L512.8,220.8
			L512.8,220.8z"/>
	</g>
	<g class="st2">
		<path class="st11" d="M513.4,220.7c2.2-3.8,6.3-13.1,6.5-13.5c3.6-6.7,8.6-11.8,10-13.2l15.7,16.9l-22.2,20.5L513.4,220.7z"/>
		<path class="st12" d="M529.8,194.8l15,16.2l-21.4,19.8l-9.4-10.1c2.2-3.9,6-12.4,6.3-13.2C523.7,201.3,528.1,196.5,529.8,194.8
			 M529.9,193.3c0,0-6.1,5.7-10.5,13.7c0,0-4.5,10.2-6.6,13.8l10.6,11.4l22.9-21.2L529.9,193.3L529.9,193.3z"/>
	</g>
	<g class="st2">
		<polygon class="st11" points="529.6,238.2 524,232.2 546.2,211.7 556,222.5 533.9,242.8 		"/>
		<path class="st12" d="M546.1,212.4l9.2,10l-21.4,19.7l-4-4.2l-5.2-5.6L546.1,212.4 M546.2,211l-22.9,21.2l5.9,6.3l4.7,5l22.9-21
			L546.2,211L546.2,211z"/>
	</g>
	<g class="st2">
		<polygon class="st11" points="540.3,249.6 534.6,243.5 556.7,223.2 566.6,233.8 544.6,254.2 		"/>
		<path class="st12" d="M556.7,223.9l9.2,9.9l-21.3,19.7l-3.9-4.2l-5.4-5.8L556.7,223.9 M556.8,222.5l-22.9,21l6,6.5l4.6,5
			l22.8-21.1L556.8,222.5L556.8,222.5z"/>
	</g>
	<g class="st2">
		<path class="st11" d="M550.9,261l-5.7-6.1l22-20.4l1.2,1.2c-1,5.2,0.7,10.4,4.4,14c1.3,1.3,2.9,2.3,4.7,3.1l-18.5,17L550.9,261z"
			/>
		<path class="st12" d="M567.3,235.3l0.6,0.7c-0.9,5.2,0.8,10.5,4.6,14.1c1.2,1.2,2.6,2.2,4.2,2.9L559,269.1l-7.7-8.4L546,255
			L567.3,235.3 M567.3,233.8l-22.8,21.1l6,6.4l8.4,9.2l19.5-17.9c-1.9-0.7-3.7-1.8-5.3-3.3c-3.8-3.7-5.2-8.9-4.2-13.8L567.3,233.8
			L567.3,233.8z"/>
	</g>
	<g class="st2">
		<path class="st11" d="M482.4,345.1c-0.2-0.2-0.4-0.4-0.6-0.7c-2.8-2.7-6.4-4.2-10.3-4.3l-6.3-6.8l22-20.6l14.1,15.2l-18.7,17.4
			C482.6,345.3,482.5,345.2,482.4,345.1z"/>
		<path class="st12" d="M487.2,313.4l2.3,2.5l11.2,12l-17.9,16.7c-0.2-0.2-0.4-0.4-0.5-0.6l0,0l0,0c-2.8-2.7-6.5-4.3-10.3-4.4
			l-5.8-6.3L487.2,313.4 M487.2,312l-22.7,21.2l6.8,7.3c3.6,0,7.3,1.4,10.1,4.1c0.4,0.5,0.8,0.9,1.2,1.4l19.4-18.1l-11.8-12.8
			L487.2,312L487.2,312z"/>
	</g>
	<g class="st2">
		<polygon class="st11" points="454.5,321.8 476.6,301.3 479.3,304.2 486.5,312 464.6,332.6 		"/>
		<path class="st12" d="M476.6,302l2.3,2.5l6.9,7.4l-21.2,19.9l-9.3-10.1L476.6,302 M476.7,300.6l-22.9,21.2l10.7,11.5l22.7-21.2
			l-7.6-8.2L476.7,300.6L476.7,300.6z"/>
	</g>
	<g class="st2">
		<path class="st11" d="M433.1,298.8c4.2-13.5,17-20.1,17.1-20.1c1.2-0.4,2.3-1,3.4-1.5l0.4-0.2l11.4,12.4l-22.1,20.3L433.1,298.8z"
			/>
		<path class="st12" d="M453.9,277.6l10.8,11.7l-21.4,19.6l-9.6-10.3c4.1-12.7,15.9-19.1,16.7-19.5
			C451.6,278.6,452.8,278.1,453.9,277.6L453.9,277.6 M454.1,276.3c-1.3,0.6-2.7,1.3-4.1,1.8c0,0-13.2,6.6-17.4,20.7l10.7,11.5
			l22.9-21L454.1,276.3L454.1,276.3z"/>
	</g>
	<g class="st2">
		<polygon class="st11" points="444,310.4 466.1,290.1 468.6,292.7 476,300.5 453.9,321 		"/>
		<path class="st12" d="M466.1,290.8l2.2,2.3l7,7.5l-21.4,19.8l-9.2-9.9L466.1,290.8 M466.2,289.4l-22.9,21l10.5,11.4l22.9-21.2
			l-7.7-8.2L466.2,289.4L466.2,289.4z"/>
	</g>
	<g class="st2">
		<path class="st11" d="M466.4,288.9L455,276.5c14.3-7,23.9-14.9,25.9-16.5l10.5,11.3l-22.3,20.4L466.4,288.9z"/>
		<path class="st12" d="M480.8,260.7l9.8,10.6L469.1,291l-2.3-2.4l-11-11.9C469.1,270,478.2,262.8,480.8,260.7 M480.9,259.3
			c0,0-10.2,9-26.7,17l11.9,12.9l3,3.1l23-21.1L480.9,259.3L480.9,259.3z"/>
	</g>
	<g class="st2">
		<polygon class="st11" points="477.1,300.2 469.7,292.4 492,272 501.8,282.6 479.7,303.1 		"/>
		<path class="st12" d="M492,272.7l9.1,9.8l-21.4,19.9l-2.3-2.5l-7-7.4L492,272.7 M492,271.3l-23,21.1l7.6,8.2l3,3.3l22.9-21.2
			L492,271.3L492,271.3z"/>
	</g>
	<g class="st2">
		<path class="st11" d="M487.6,311.7l-7.2-7.8l22.1-20.6l9.7,10.5c0,0,0,0.2,0,0.3l-21.9,20.4L487.6,311.7z"/>
		<path class="st12" d="M502.5,284l9.2,9.9l-21.4,19.9l-2.3-2.5l-6.9-7.4L502.5,284 M502.5,282.6l-22.9,21.2l7.6,8.2l3,3.2
			l22.4-20.9c0.1-0.2,0.1-0.5,0.2-0.7L502.5,282.6L502.5,282.6z"/>
	</g>
	<g class="st2">
		<path class="st11" d="M379,359.1c8.4-4.9,16.5-11.2,24.1-18.5l9.6,10.5l1.4,1.5L392,373.1L379,359.1z"/>
		<path class="st12" d="M403,341.4l9.3,10.2l1.1,1.1L392,372.4l-12.2-13.2C387.9,354.4,395.7,348.4,403,341.4 M403.1,339.9
			c-6.7,6.6-15.1,13.5-24.9,19.1l13.8,14.8l22.9-21.2l-1.8-1.8L403.1,339.9L403.1,339.9z"/>
	</g>
	<g class="st2">
		<path class="st11" d="M403.8,339.9c10.8-10.8,17.5-20.9,19.1-23.4l12.3,13.1l-22.1,20.4L403.8,339.9z"/>
		<path class="st12" d="M423,317.4l11.5,12.3l-21.4,19.7l-8.6-9.5C414.5,329.9,420.9,320.5,423,317.4 M422.8,315.8
			c0,0-7,11.5-19.7,24.1l9.9,10.9l22.9-21.1L422.8,315.8L422.8,315.8z"/>
	</g>
	<g class="st2">
		<polygon class="st11" points="415.1,352.3 413.7,350.9 435.8,330.5 445.7,341 423.6,361.5 		"/>
		<path class="st12" d="M435.7,331.2l9.3,9.9l-21.4,19.8l-8.1-8.8l-1.1-1.1L435.7,331.2 M435.8,329.8L413,350.8l1.8,1.8l8.8,9.6
			l22.9-21.2L435.8,329.8L435.8,329.8z"/>
	</g>
	<g class="st2">
		<path class="st11" d="M425.7,363.8l-1.4-1.5l22.1-20.5l9.7,10.5c0,0.1,0,0.3-0.1,0.4L434.2,373L425.7,363.8z"/>
		<path class="st12" d="M446.4,342.5l9.2,9.9l-21.3,19.9l-8.2-8.8l-1.1-1.2L446.4,342.5 M446.4,341.1l-22.9,21.2l1.8,1.9l8.9,9.5
			l22.3-20.8c0.1-0.3,0.1-0.5,0.2-0.8L446.4,341.1L446.4,341.1z"/>
	</g>
	<g class="st2">
		<polygon class="st11" points="348,444.6 370,424.1 374.1,428.5 379.9,434.6 357.9,455.1 		"/>
		<path class="st12" d="M369.9,424.8l3.8,4.1l5.4,5.7l-21.3,19.9l-9.2-9.8L369.9,424.8 M370,423.4l-22.7,21.2l10.5,11.3l22.7-21.2
			l-6.1-6.4L370,423.4L370,423.4z"/>
	</g>
	<g class="st2">
		<polygon class="st11" points="337.3,433.1 359.4,412.7 363.4,417.1 369.3,423.3 347.3,443.8 		"/>
		<path class="st12" d="M359.4,413.4l3.7,4l5.5,5.9l-21.2,19.8l-9.3-10L359.4,413.4 M359.4,412l-22.8,21.1l10.7,11.5l22.7-21.2
			l-6.2-6.6L359.4,412L359.4,412z"/>
	</g>
	<g class="st2">
		<path class="st11" d="M326.7,421.7c8.2-9.2,12.5-17.3,16.7-26.2l9.4,10.2l5.9,6.4l-22.1,20.4L326.7,421.7z"/>
		<path class="st12" d="M343.5,396.3l8.9,9.6l5.6,6l-21.4,19.7l-9.3-10C335.2,412.8,339.4,404.9,343.5,396.3 M343.2,394.6
			c-4.3,9-8.6,17.6-17.3,27.1l10.6,11.4l22.8-21.1l-6.2-6.7L343.2,394.6L343.2,394.6z"/>
	</g>
	<g class="st2">
		<path class="st11" d="M289.2,455.3c2.7-4.1,5.9-8.1,9.4-12l20.3,22.5l-10.7,9.8L289.2,455.3z"/>
		<path class="st12" d="M298.6,444l19.6,21.7l-9.9,9.1l-18.4-19.6C292.4,451.4,295.4,447.7,298.6,444 M298.6,442.6
			c-3.2,3.5-6.7,7.8-10,12.8l19.6,20.9l11.4-10.5L298.6,442.6L298.6,442.6z"/>
	</g>
	<g class="st2">
		<polygon class="st11" points="309,476.3 319.6,466.5 340.8,490 340.6,490.2 330.7,499.5 		"/>
		<path class="st12" d="M319.6,467.2l20.5,22.8l-9.4,8.8l-21-22.5L319.6,467.2 M319.6,465.8l-11.4,10.5l22.4,23.9l10.2-9.6l0.6-0.5
			L319.6,465.8L319.6,465.8z"/>
	</g>
	<g class="st2">
		<polygon class="st11" points="331.4,500.2 340.9,491.3 357.3,508.8 348.3,518.1 		"/>
		<path class="st12" d="M340.9,492l15.7,16.8l-8.3,8.6l-16.2-17.2L340.9,492 M340.9,490.6l-10.2,9.6l17.6,18.7l9.7-10L340.9,490.6
			L340.9,490.6z"/>
	</g>
	<g class="st2">
		<path class="st11" d="M299.3,442.6c5.2-5.5,9.5-8.8,10.7-9.7l20.6,22.2l-11,10.1L299.3,442.6z"/>
		<path class="st12" d="M310,433.5l20,21.5l-10.2,9.4L300,442.6C304.6,437.7,308.4,434.6,310,433.5 M310.1,432.2
			c0,0-5.1,3.5-11.5,10.4l21,23.2l11.7-10.8L310.1,432.2L310.1,432.2z"/>
	</g>
	<g class="st2">
		<path class="st11" d="M542.2,293.8c-0.6-2.9-2.1-5.6-4.4-7.8c-2.5-2.3-5.6-3.8-8.9-4.2l21.6-19.8l8.1,8.8l3.9,4.1L542.2,293.8z"/>
		<path class="st12" d="M550.5,262.8l7.7,8.4l3.5,3.7l-19.3,18c-0.7-2.7-2.2-5.1-4.4-7.2c-2.3-2.1-5.1-3.6-8.1-4.1L550.5,262.8
			 M550.6,261.4l-22.9,20.9c3.5,0.2,7,1.5,9.7,4.1c2.4,2.4,4,5.3,4.4,8.4l21.3-19.9l-4.2-4.4L550.6,261.4L550.6,261.4z"/>
	</g>
	<g class="st2">
		<path class="st11" d="M502.4,327.7l-11.5-12.5l21-19.6c-0.4,4.6,1.3,9.2,4.7,12.5c1.5,1.4,3.1,2.5,4.8,3.2l-18.4,17.1L502.4,327.7
			z"/>
		<path class="st12" d="M511.3,296.9c-0.1,4.3,1.7,8.5,4.9,11.6c1.3,1.2,2.7,2.2,4.3,3l-17.5,16.2l-0.3-0.3l-11.2-12.1L511.3,296.9
			 M512.6,294.4l-22.4,20.9l11.8,12.8l1,1.1l19.3-18c-2-0.7-3.8-1.8-5.4-3.4C513.2,304.2,511.7,299.1,512.6,294.4L512.6,294.4z"/>
	</g>
	<g class="st2">
		<path class="st11" d="M434.9,373.7l20.9-19.5c-0.4,4.5,1.3,9,4.6,12.2c1.9,1.8,4.1,3.1,6.6,3.7l-19.1,17.6L434.9,373.7z"/>
		<path class="st12" d="M455.3,355.4c0,4.2,1.7,8.3,4.8,11.3c1.7,1.6,3.7,2.9,5.9,3.6L447.9,387l-11.3-12.2l-1-1.1L455.3,355.4
			 M456.5,352.9l-22.3,20.8l1.7,1.8l12,12.9l20.2-18.6c-2.7-0.5-5.2-1.8-7.3-3.8C457.1,362.5,455.7,357.5,456.5,352.9L456.5,352.9z"
			/>
	</g>
	<g class="st2">
		<path class="st11" d="M381,434.3l-5.8-6.1l22-20.6l2.5,2.7c-1.4,5.3,0.3,11,4.3,14.7c1.6,1.5,3.4,2.6,5.3,3.4L391,445.3L381,434.3
			z"/>
		<path class="st12" d="M397.2,408.3l2,2.2c-1.3,5.4,0.4,11.1,4.5,15c1.4,1.4,3,2.4,4.8,3.2l-17.3,16l-9.7-10.6l-5.4-5.8
			L397.2,408.3 M397.2,406.9l-22.7,21.3l6.1,6.5L391,446l19.3-17.8c-2.2-0.7-4.2-1.8-6-3.5c-4.1-3.8-5.4-9.5-4.1-14.5L397.2,406.9
			L397.2,406.9z"/>
	</g>
	<g class="st2">
		<path class="st11" d="M391.7,446l18.6-17.3c1.4,0.4,2.8,0.6,4.2,0.6c0,0,0,0,0,0c3.7,0,7.3-1.3,10-3.8l6.6,6.5l-26.7,27.7
			L391.7,446z"/>
		<path class="st12" d="M424.6,426.3l5.9,5.8l-26,27l-10.8-11.7l-1.2-1.3l18-16.7c1.3,0.4,2.7,0.5,4.1,0.5
			C418.2,429.8,421.8,428.6,424.6,426.3 M424.6,424.9c-2.8,2.6-6.4,3.9-10.1,3.9c-1.5,0-2.9-0.2-4.4-0.7L391,446l1.9,2.1l11.5,12.5
			l27.4-28.4L424.6,424.9L424.6,424.9z"/>
	</g>
	<g class="st2">
		<path class="st11" d="M320.3,465.8l11-10.1l13,13.9c-0.5,4.6,1.2,9.3,4.6,12.6l0.2,0.2l-7.5,6.9L320.3,465.8z"/>
		<path class="st12" d="M331.3,456.4l12.5,13.4c-0.4,4.6,1.3,9.3,4.6,12.6l-6.7,6.2L321,465.9L331.3,456.4 M331.3,455l-11.7,10.8
			l21.9,24.3l8.3-7.6c-0.2-0.2-0.4-0.4-0.5-0.5c-3.4-3.4-5-8-4.4-12.5L331.3,455L331.3,455z"/>
	</g>
	<g class="st2">
		<path class="st11" d="M368.6,183.2l19-17.5c0.8,2.3,2.1,4.3,3.8,6c2.8,2.6,6.4,4.1,10.3,4.2l-21.4,19.9L368.6,183.2z"/>
		<path class="st12" d="M387.4,166.5c0.8,2.1,2.1,3.9,3.7,5.4c2.6,2.4,5.9,3.9,9.4,4.3l-20.2,18.8l-11-11.8L387.4,166.5
			 M387.8,164.8l-19.9,18.4l12.4,13.3l22.7-21.2c-0.3,0-0.6,0-0.9,0c-3.7,0-7.4-1.3-10.3-4.1C389.8,169.4,388.5,167.1,387.8,164.8
			L387.8,164.8z"/>
	</g>
	<g class="st2">
		<path class="st11" d="M86.3,215.6L98.2,203l21.8,20.4c-0.3,0-0.5,0-0.8,0c-4.2,0-8.1,1.7-11.1,4.7c-1.4,1.5-2.5,3.1-3.2,4.9
			L86.3,215.6z"/>
		<path class="st12" d="M98.2,203.7l20.5,19.2c-4.1,0.1-8,1.8-10.9,4.8c-1.3,1.4-2.3,2.8-3,4.4L87,215.6L98.2,203.7 M98.2,202.3
			l-12.5,13.4l19.6,18.2c0.6-2,1.8-3.8,3.3-5.4c3-3,6.8-4.5,10.7-4.5c0.7,0,1.5,0.1,2.2,0.2L98.2,202.3L98.2,202.3z"/>
	</g>
	<g class="st2">
		<polygon class="st11" points="98.9,202.3 108.9,191.8 131.5,212.9 121.4,223.4 		"/>
		<path class="st12" d="M108.9,192.5l21.8,20.5l-9.4,9.7l-21.8-20.4L108.9,192.5 M108.9,191.1l-10.7,11.2l23.2,21.8l10.8-11.2
			L108.9,191.1L108.9,191.1z"/>
	</g>
	<g class="st2">
		<polygon class="st11" points="227.9,138.2 243,122.3 262.6,143.5 249.1,157.9 		"/>
		<path class="st12" d="M243,123l18.9,20.5L249,157.2l-20.4-19L243,123 M243,121.6l-15.7,16.7l21.9,20.4l14.1-15.1L243,121.6
			L243,121.6z"/>
	</g>
	<g class="st2">
		<polygon class="st11" points="242.7,166.1 263.2,144.2 274,155.7 252,176.1 		"/>
		<path class="st12" d="M263.2,145l10,10.7L252,175.4l-8.6-9.3L263.2,145 M263.2,143.5L242,166.1l9.9,10.7l22.8-21.1L263.2,143.5
			L263.2,143.5z"/>
	</g>
	<g class="st2">
		<path class="st11" d="M341.6,490.6l8.1-7.5c2.7,2.2,6.1,3.5,9.7,3.5c0,0,0,0,0,0c3.3,0,6.6-1.1,9.2-3.1l6.7,6.5l-17.4,18.1
			L341.6,490.6z"/>
		<path class="st12" d="M349.8,483.8c2.8,2.1,6.1,3.3,9.7,3.3c3.3,0,6.5-1,9.2-2.9l6,5.9l-16.7,17.3l-15.6-16.7L349.8,483.8
			 M349.7,482.4l-8.8,8.1l17,18.2L376,490l-7.3-7.2c-2.7,2.2-6,3.3-9.3,3.3C356,486.1,352.5,484.9,349.7,482.4L349.7,482.4z"/>
	</g>
	<g class="st2">
		<path class="st11" d="M369.5,482.9c0.4-0.3,0.7-0.7,1-1c4-4.1,5.3-10.2,3.5-15.6l18.9-17.5l10.9,11.7L376,489.3L369.5,482.9z"/>
		<path class="st12" d="M392.9,449.5l10.2,11L376,488.6l-5.8-5.7c0.2-0.2,0.5-0.4,0.7-0.7c4-4.2,5.4-10.3,3.7-15.8L392.9,449.5
			 M392.9,448.1l-19.5,18.1c1.8,5.1,0.8,11.2-3.3,15.4c-0.5,0.5-0.9,0.9-1.5,1.3l7.3,7.2l28.4-29.5L392.9,448.1L392.9,448.1z"/>
	</g>
	<g class="st2">
		<path class="st11" d="M373.6,465.3c-0.8-2-2-3.7-3.5-5.2c-2.9-2.8-6.7-4.3-10.6-4.3c-0.2,0-0.5,0-0.7,0l-0.1-0.1l21.9-20.5
			l11.7,12.7L373.6,465.3z"/>
		<path class="st12" d="M380.5,436l11,12l-17.7,16.5c-0.8-1.8-2-3.4-3.3-4.7c-2.9-2.8-6.7-4.3-10.6-4.4L380.5,436 M380.6,434.6
			l-22.7,21.2l0.8,0.5c0.3,0,0.6,0,0.9,0c3.7,0,7.4,1.4,10.3,4.2c1.7,1.6,2.9,3.6,3.7,5.7l19.5-18.1L380.6,434.6L380.6,434.6z"/>
	</g>
	<g class="st2">
		<path class="st11" d="M343.9,394.5c0.6-1,1.1-2,1.5-3.2c0.9-2.3,2.1-5.1,5.5-9.8c4.6-6.4,9.8-10.5,11.1-11.5l13.3,14.3l-22.2,20.3
			L343.9,394.5z"/>
		<path class="st12" d="M362,370.6l12.6,13.6l-21.4,19.6l-8.7-9.4c0.6-0.9,0.9-1.9,1.4-2.9c0.9-2.2,2.1-5,5.4-9.7
			C355.5,375.9,360.3,372,362,370.6 M362.1,369.3c0,0-6.2,4.4-11.6,11.9c-5.4,7.6-5.3,10.5-7.3,13.4l9.9,10.7l22.9-21L362.1,369.3
			L362.1,369.3z"/>
	</g>
	<g class="st2">
		<polygon class="st11" points="353.9,405.2 376,385 385.9,395.6 363.8,416 		"/>
		<path class="st12" d="M376,385.7l9.2,9.9l-21.3,19.7l-9.3-10L376,385.7 M376,384.3l-22.9,20.9l10.7,11.5l22.8-21.1L376,384.3
			L376,384.3z"/>
	</g>
	<g class="st2">
		<polygon class="st11" points="364.5,416.8 386.6,396.3 396.5,406.8 374.5,427.5 		"/>
		<path class="st12" d="M386.5,397l9.3,9.8l-21.2,19.9l-9.3-10L386.5,397 M386.6,395.6l-22.8,21.1l10.7,11.5l22.7-21.3L386.6,395.6
			L386.6,395.6z"/>
	</g>
	<g class="st2">
		<path class="st11" d="M429.4,409.9c-0.8-2.7-2.2-5.1-4.1-6.9c-2.6-2.5-5.9-4-9.5-4.2l-1.8-2l22.1-20.4l13.7,14.8L429.4,409.9z"/>
		<path class="st12" d="M435.9,377l13,14L429.6,409c-0.8-2.5-2.2-4.7-4-6.4c-2.7-2.5-6-4-9.6-4.4l-1.4-1.5L435.9,377 M436,375.6
			l-22.8,21.1l2.3,2.5c3.4,0.2,6.7,1.6,9.4,4.1c2.2,2.1,3.6,4.7,4.2,7.5l21.3-19.7L436,375.6L436,375.6z"/>
	</g>
	<g class="st2">
		<polygon class="st11" points="403.2,385.3 425.3,364.9 435.3,375.6 413.2,396 		"/>
		<path class="st12" d="M425.3,365.6l9.3,10l-21.4,19.7l-9.3-9.9L425.3,365.6 M425.3,364.1l-22.9,21.2l10.7,11.4l22.8-21.1
			L425.3,364.1L425.3,364.1z"/>
	</g>
	<g class="st2">
		<polygon class="st11" points="392.6,373.9 414.8,353.4 424.6,364.1 402.5,384.6 		"/>
		<path class="st12" d="M414.7,354.1l9.2,10l-21.4,19.8l-9.2-10L414.7,354.1 M414.8,352.7l-22.9,21.2l10.5,11.5l22.9-21.2
			L414.8,352.7L414.8,352.7z"/>
	</g>
	<g class="st2">
		<path class="st11" d="M356.2,169.9l29-26.8l6,6.5c-1.3,1.3-5.6,6.4-4,15l-19.4,17.9L356.2,169.9z"/>
		<g>
			<path class="st12" d="M385.1,143.8l5.4,5.8c-1.6,1.8-5.2,6.8-3.8,14.8l-18.8,17.4l-11-11.8L385.1,143.8 M385.2,142.4l-29.7,27.5
				l12.4,13.3l19.9-18.4c-2-10,4.1-15.1,4.1-15.1L385.2,142.4L385.2,142.4z"/>
		</g>
	</g>
</g>
<g id="sections">
	<g>
		<g class="st1">
			<circle class="st11" cx="323.4" cy="471.8" r="11.6"/>
		</g>
		<g>
			<path class="st13" d="M316.4,477.9l5.4-12.1h3.4l5.4,12.1h-3.6l-4.2-10.4h1.4l-4.2,10.4H316.4z M319.3,475.5l0.9-2.5h5.9l0.9,2.5
				H319.3z"/>
		</g>
	</g>
	<g>
		<g class="st1">
			<circle class="st11" cx="363.5" cy="417.5" r="11.6"/>
		</g>
		<g>
			<path class="st13" d="M357.8,423.6v-12.1h6.2c1.6,0,2.8,0.3,3.6,0.9s1.2,1.4,1.2,2.3c0,0.6-0.2,1.2-0.5,1.6
				c-0.3,0.5-0.8,0.8-1.4,1.1c-0.6,0.3-1.3,0.4-2.1,0.4l0.3-0.8c0.8,0,1.6,0.1,2.2,0.4s1.1,0.6,1.5,1.1c0.4,0.5,0.5,1.1,0.5,1.8
				c0,1-0.4,1.9-1.3,2.4c-0.8,0.6-2.1,0.9-3.7,0.9H357.8z M361.2,421.1h2.9c0.6,0,1-0.1,1.4-0.3c0.3-0.2,0.5-0.5,0.5-0.9
				c0-0.4-0.2-0.7-0.5-0.9c-0.3-0.2-0.8-0.3-1.4-0.3h-3.1v-2.4h2.6c0.6,0,1-0.1,1.3-0.3c0.3-0.2,0.4-0.5,0.4-0.9
				c0-0.4-0.1-0.7-0.4-0.9c-0.3-0.2-0.7-0.3-1.3-0.3h-2.4V421.1z"/>
		</g>
	</g>
	<g>
		<g class="st1">
			<circle class="st11" cx="588.3" cy="186.8" r="11.6"/>
		</g>
		<g>
			<path class="st13" d="M587,192.8h-3.4v-12.1h9.5v2.7H587V192.8z M586.7,186h5.6v2.6h-5.6V186z"/>
		</g>
	</g>
	<g>
		<g class="st1">
			<circle class="st11" cx="419.2" cy="357.4" r="11.6"/>
		</g>
		<g>
			<path class="st13" d="M420,363.7c-1,0-1.8-0.2-2.6-0.5c-0.8-0.3-1.5-0.7-2.1-1.3c-0.6-0.6-1.1-1.2-1.4-2
				c-0.3-0.8-0.5-1.6-0.5-2.5c0-0.9,0.2-1.8,0.5-2.5c0.3-0.8,0.8-1.4,1.4-2c0.6-0.6,1.3-1,2.1-1.3c0.8-0.3,1.7-0.5,2.6-0.5
				c1.1,0,2.1,0.2,3,0.6c0.9,0.4,1.6,1,2.2,1.7l-2.2,2c-0.4-0.5-0.8-0.8-1.3-1.1c-0.5-0.2-1-0.4-1.6-0.4c-0.5,0-1,0.1-1.4,0.2
				c-0.4,0.2-0.8,0.4-1.1,0.7c-0.3,0.3-0.5,0.7-0.7,1.1c-0.2,0.4-0.3,0.9-0.3,1.4s0.1,1,0.3,1.4c0.2,0.4,0.4,0.8,0.7,1.1
				c0.3,0.3,0.6,0.5,1.1,0.7c0.4,0.2,0.9,0.2,1.4,0.2c0.6,0,1.1-0.1,1.6-0.4s0.9-0.6,1.3-1.1l2.2,2c-0.6,0.8-1.3,1.3-2.2,1.7
				C422.1,363.5,421.1,363.7,420,363.7z"/>
		</g>
	</g>
	<g>
		<g class="st1">
			<circle class="st11" cx="476.7" cy="299.1" r="11.6"/>
		</g>
		<g>
			<path class="st13" d="M470.4,305.2v-12.1h5.7c1.3,0,2.5,0.2,3.5,0.7c1,0.5,1.8,1.2,2.4,2.1s0.9,2,0.9,3.2c0,1.2-0.3,2.3-0.9,3.2
				c-0.6,0.9-1.4,1.6-2.4,2.1c-1,0.5-2.2,0.7-3.5,0.7H470.4z M473.9,302.4h2.1c0.7,0,1.3-0.1,1.8-0.4c0.5-0.3,0.9-0.6,1.2-1.2
				s0.4-1.1,0.4-1.8c0-0.7-0.1-1.3-0.4-1.8c-0.3-0.5-0.7-0.9-1.2-1.1c-0.5-0.3-1.1-0.4-1.8-0.4h-2.1V302.4z"/>
		</g>
	</g>
	<g>
		<g class="st2">
			<circle class="st11" cx="529.5" cy="241.9" r="11.6"/>
		</g>
		<g class="st1">
			<circle class="st11" cx="529.5" cy="241.9" r="11.6"/>
		</g>
		<g>
			<path class="st13" d="M528,245.3h6.3v2.7h-9.7v-12.1h9.5v2.7H528V245.3z M527.8,240.6h5.6v2.5h-5.6V240.6z"/>
		</g>
	</g>
	<g>
		<g class="st1">
			<circle class="st11" cx="673.4" cy="145.3" r="11.6"/>
		</g>
		<g>
			<path class="st13" d="M674,151.6c-1,0-1.9-0.2-2.7-0.5c-0.8-0.3-1.5-0.7-2.1-1.3c-0.6-0.6-1.1-1.2-1.4-2
				c-0.3-0.8-0.5-1.6-0.5-2.5c0-0.9,0.2-1.8,0.5-2.5c0.3-0.8,0.8-1.4,1.4-2c0.6-0.6,1.3-1,2.1-1.3c0.8-0.3,1.7-0.5,2.7-0.5
				c1.1,0,2.1,0.2,3,0.6c0.9,0.4,1.6,0.9,2.2,1.6l-2.2,2c-0.4-0.5-0.9-0.8-1.3-1c-0.5-0.2-1-0.3-1.6-0.3c-0.5,0-1,0.1-1.4,0.2
				c-0.4,0.2-0.8,0.4-1.1,0.7c-0.3,0.3-0.5,0.7-0.7,1.1c-0.2,0.4-0.3,0.9-0.3,1.4c0,0.5,0.1,1,0.3,1.4c0.2,0.4,0.4,0.8,0.7,1.1
				c0.3,0.3,0.7,0.5,1.1,0.7c0.4,0.2,0.9,0.3,1.4,0.3s1-0.1,1.5-0.3c0.5-0.2,1-0.5,1.5-0.9l1.9,2.4c-0.7,0.5-1.5,0.9-2.4,1.1
				C675.8,151.4,674.9,151.6,674,151.6z M676.1,149.6V145h3v5L676.1,149.6z"/>
		</g>
	</g>
	<g>
		<g class="st1">
			<circle class="st11" cx="529.5" cy="101.3" r="11.6"/>
		</g>
		<g>
			<path class="st13" d="M527.2,107.3h-3.4V95.2h3.4V107.3z M532.1,102.6h-5.2v-2.8h5.2V102.6z M531.8,95.2h3.4v12.1h-3.4V95.2z"/>
		</g>
	</g>
	<g>
		<g class="st1">
			<circle class="st11" cx="279.2" cy="326.2" r="11.6"/>
		</g>
		<path class="st13" d="M273.1,332.2v-12.1h3.4v12.1H273.1z M276.2,329.5l-0.2-3.8l5.2-5.6h3.8l-5.2,5.6l-1.9,2L276.2,329.5z
			 M281.2,332.2l-3.9-5l2.2-2.4l5.7,7.4H281.2z"/>
	</g>
	<g>
		<g class="st1">
			<circle class="st11" cx="242" cy="380.4" r="11.6"/>
		</g>
		<g>
			<path class="st13" d="M237.4,386.5v-12.1h3.4v9.4h5.8v2.7H237.4z"/>
		</g>
	</g>
	<g>
		<g class="st1">
			<circle class="st11" cx="92" cy="89.8" r="11.6"/>
		</g>
		<g>
			<path class="st13" d="M86.2,95.9V83.7h2.8l6.7,8.1h-1.3v-8.1h3.4v12.1h-2.8l-6.7-8.1h1.3v8.1H86.2z"/>
		</g>
	</g>
	<g>
		<g>
			<g class="st1">
				<circle class="st11" cx="137" cy="158.5" r="11.6"/>
			</g>
		</g>
		<g>
			<path class="st13" d="M130,164.5v-12.1h2.8l5,8.2h-1.5l4.9-8.2h2.8l0,12.1h-3.2l0-7.3h0.5l-3.7,6.1h-1.5l-3.8-6.1h0.7v7.3H130z"
				/>
		</g>
	</g>
	<g>
		<g class="st1">
			<circle class="st11" cx="303.7" cy="57.1" r="11.6"/>
		</g>
		<g>
			<path class="st13" d="M303.7,63.4c-1,0-1.9-0.2-2.7-0.5c-0.8-0.3-1.5-0.8-2.1-1.3c-0.6-0.6-1.1-1.2-1.4-2
				c-0.3-0.8-0.5-1.6-0.5-2.5c0-0.9,0.2-1.7,0.5-2.5c0.3-0.8,0.8-1.4,1.4-2c0.6-0.6,1.3-1,2.1-1.3c0.8-0.3,1.7-0.5,2.7-0.5
				s1.9,0.2,2.7,0.5c0.8,0.3,1.5,0.8,2.1,1.3s1.1,1.2,1.4,2s0.5,1.6,0.5,2.5c0,0.9-0.2,1.8-0.5,2.5c-0.3,0.8-0.8,1.4-1.4,2
				s-1.3,1-2.1,1.3C305.5,63.2,304.6,63.4,303.7,63.4z M303.7,60.5c0.5,0,0.9-0.1,1.3-0.2c0.4-0.2,0.7-0.4,1-0.7
				c0.3-0.3,0.5-0.7,0.7-1.1c0.2-0.4,0.3-0.9,0.3-1.4c0-0.5-0.1-1-0.3-1.4c-0.2-0.4-0.4-0.8-0.7-1.1c-0.3-0.3-0.6-0.5-1-0.7
				c-0.4-0.2-0.8-0.2-1.3-0.2c-0.5,0-0.9,0.1-1.3,0.2c-0.4,0.2-0.7,0.4-1,0.7c-0.3,0.3-0.5,0.7-0.7,1.1c-0.2,0.4-0.2,0.9-0.2,1.4
				c0,0.5,0.1,1,0.2,1.4c0.2,0.4,0.4,0.8,0.7,1.1c0.3,0.3,0.6,0.5,1,0.7C302.8,60.5,303.2,60.5,303.7,60.5z"/>
		</g>
	</g>
	<g>
		<g class="st1">
			<circle class="st11" cx="380.5" cy="133.6" r="11.6"/>
		</g>
		<g>
			<path class="st13" d="M378.8,139.7v-12.1h3.4v12.1H378.8z"/>
		</g>
	</g>
	<g>
		<g class="st1">
			<circle class="st11" cx="242" cy="163.3" r="11.6"/>
		</g>
		<g>
			<path class="st13" d="M241.8,169.5c-0.9,0-1.7-0.2-2.4-0.5c-0.7-0.3-1.3-0.7-1.8-1.3l1.9-2.2c0.3,0.4,0.7,0.7,1,0.9
				c0.3,0.2,0.7,0.3,1.1,0.3c1,0,1.5-0.6,1.5-1.7v-5.2h-4.2v-2.7h7.6v7.7c0,1.6-0.4,2.7-1.2,3.5
				C244.4,169.1,243.3,169.5,241.8,169.5z"/>
		</g>
	</g>
	<g>
		<g class="st1">
			<circle class="st11" cx="310.4" cy="233.2" r="11.6"/>
		</g>
		<g>
			<path class="st13" d="M310.2,239.3c-0.9,0-1.7-0.2-2.4-0.5c-0.7-0.3-1.3-0.7-1.8-1.3l1.9-2.2c0.3,0.4,0.7,0.7,1,0.9
				c0.3,0.2,0.7,0.3,1.1,0.3c1,0,1.5-0.6,1.5-1.7v-5.2h-4.2V227h7.6v7.7c0,1.6-0.4,2.7-1.2,3.5C312.9,239,311.7,239.3,310.2,239.3z"
				/>
		</g>
	</g>
</g>
</svg>
