<svg  viewBox="0 0 52 52" fill="none" xmlns="http://www.w3.org/2000/svg">
<g filter="url(#filter0_d_100_141)">
<path d="M40.6172 9.25829C36.5892 5.22068 31.225 3 25.5243 3C13.7575 3 4.18265 12.5749 4.18265 24.3416C4.18265 28.1004 5.16322 31.7727 7.0282 35.0124L4 46.0678L15.3149 43.0973C18.4296 44.7988 21.9385 45.6929 25.5147 45.6929H25.5243C37.2814 45.6929 47.0678 36.118 47.0678 24.3512C47.0678 18.6505 44.6452 13.2959 40.6172 9.25829ZM25.5243 42.0975C22.3327 42.0975 19.2083 41.2419 16.4877 39.6269L15.8436 39.2423L9.13353 41.0016L10.9216 34.4549L10.4986 33.7819C8.72015 30.9556 7.78766 27.6967 7.78766 24.3416C7.78766 14.5649 15.7475 6.60501 25.5339 6.60501C30.2733 6.60501 34.7243 8.45077 38.0697 11.8058C41.4151 15.1609 43.4724 19.6119 43.4628 24.3512C43.4628 34.1376 35.3011 42.0975 25.5243 42.0975ZM35.253 28.8118C34.7243 28.5427 32.0998 27.2545 31.6095 27.0814C31.1193 26.8988 30.7636 26.8123 30.4079 27.3506C30.0522 27.889 29.0332 29.081 28.7159 29.4463C28.4083 29.802 28.091 29.8501 27.5623 29.5809C24.4284 28.0139 22.3711 26.7834 20.3042 23.2361C19.7563 22.294 20.8522 22.3613 21.8712 20.3233C22.0443 19.9676 21.9577 19.6599 21.8231 19.3908C21.6886 19.1216 20.6215 16.4971 20.1793 15.4301C19.7467 14.3918 19.3044 14.536 18.9776 14.5168C18.67 14.4976 18.3143 14.4976 17.9586 14.4976C17.6029 14.4976 17.0261 14.6321 16.5358 15.1609C16.0455 15.6992 14.6708 16.9874 14.6708 19.6119C14.6708 22.2363 16.5839 24.7742 16.8434 25.1299C17.1126 25.4856 20.6022 30.8691 25.9569 33.1859C29.3408 34.6471 30.6674 34.7721 32.3594 34.5222C33.388 34.3684 35.5126 33.234 35.9548 31.9842C36.397 30.7345 36.397 29.6674 36.2624 29.4463C36.1374 29.206 35.7817 29.0714 35.253 28.8118Z" fill="white"/>
</g>
<defs>
<filter id="filter0_d_100_141" x="0" y="0" width="51.0679" height="51.0678" filterUnits="userSpaceOnUse" color-interpolation-filters="sRGB">
<feFlood flood-opacity="0" result="BackgroundImageFix"/>
<feColorMatrix in="SourceAlpha" type="matrix" values="0 0 0 0 0 0 0 0 0 0 0 0 0 0 0 0 0 0 127 0" result="hardAlpha"/>
<feOffset dy="1"/>
<feGaussianBlur stdDeviation="2"/>
<feComposite in2="hardAlpha" operator="out"/>
<feColorMatrix type="matrix" values="0 0 0 0 0 0 0 0 0 0 0 0 0 0 0 0 0 0 0.25 0"/>
<feBlend mode="normal" in2="BackgroundImageFix" result="effect1_dropShadow_100_141"/>
<feBlend mode="normal" in="SourceGraphic" in2="effect1_dropShadow_100_141" result="shape"/>
</filter>
</defs>
</svg>
